<?xml version="1.0" encoding="utf-8"?>
<svg xmlns="http://www.w3.org/2000/svg" height="512pt" version="1.1" viewBox="0 0 512 512" width="512pt">
<path d="M 0.00 0.00 L 512.00 0.00 L 512.00 512.00 L 0.00 512.00 L 0.00 0.00 Z" fill="transparent" opacity="1.00" stroke="transparent" stroke-width="0.25"/>
<path d="M 294.81 59.48 C 302.44 63.87 310.17 68.27 316.59 74.39 C 323.41 80.86 330.21 87.74 334.62 96.15 C 333.26 96.08 331.91 96.04 330.56 95.99 C 326.83 90.00 323.00 84.04 318.07 78.95 C 311.29 71.36 302.99 65.44 294.81 59.48 Z" fill="#414b2d" opacity="1.00" stroke="#414b2d" stroke-width="0.25"/>
<path d="M 171.83 105.12 C 178.07 96.25 188.69 91.63 198.94 89.18 C 196.64 90.69 194.36 92.28 191.89 93.53 C 191.45 93.73 190.57 94.15 190.12 94.36 C 190.50 95.96 190.87 97.57 191.24 99.17 C 184.66 100.79 178.34 103.26 171.83 105.12 Z" fill="#097d77" opacity="1.00" stroke="#097d77" stroke-width="0.25"/>
<path d="M 190.12 94.36 C 190.57 94.15 191.45 93.73 191.89 93.53 C 192.92 95.03 194.80 94.45 196.30 94.31 C 205.63 92.64 215.27 94.40 224.05 97.69 C 219.03 97.47 214.05 96.50 209.01 96.78 C 203.03 97.11 197.10 98.00 191.24 99.17 C 190.87 97.57 190.50 95.96 190.12 94.36 Z" fill="#138c9c" opacity="1.00" stroke="#138c9c" stroke-width="0.25"/>
<path d="M 330.56 95.99 C 331.91 96.04 333.26 96.08 334.62 96.15 C 342.47 108.50 346.90 123.38 345.72 138.08 C 344.97 151.02 339.54 163.95 329.57 172.46 C 331.13 169.28 333.10 166.33 335.15 163.46 C 334.19 163.22 333.24 162.86 332.25 162.86 C 330.02 164.37 328.06 166.27 325.61 167.45 C 331.71 160.64 336.76 152.74 338.85 143.72 C 343.14 127.48 338.26 110.41 330.56 95.99 Z" fill="#102345" opacity="1.00" stroke="#102345" stroke-width="0.25"/>
<path d="M 202.09 103.70 C 206.43 102.35 211.04 102.27 215.49 103.13 C 226.68 104.32 237.37 109.05 246.19 115.98 C 246.79 117.25 247.32 118.56 247.86 119.86 C 244.48 120.73 240.90 121.65 237.47 120.50 C 229.45 118.14 222.11 114.02 214.63 110.36 C 210.24 108.44 207.39 103.19 202.09 103.70 Z" fill="#fbc112" opacity="1.00" stroke="#fbc112" stroke-width="0.25"/>
<path d="M 167.95 111.70 C 175.80 108.00 184.18 105.55 192.74 104.19 C 189.63 107.09 186.99 110.55 185.52 114.57 C 183.99 118.23 184.23 122.28 183.96 126.16 C 178.96 124.72 173.65 122.85 170.32 118.61 C 168.67 116.82 169.07 114.29 168.96 112.07 C 168.71 111.98 168.20 111.79 167.95 111.70 Z" fill="#02a79b" opacity="1.00" stroke="#02a79b" stroke-width="0.25"/>
<path d="M 199.92 104.93 C 200.46 104.62 201.55 104.01 202.09 103.70 C 207.39 103.19 210.24 108.44 214.63 110.36 C 222.11 114.02 229.45 118.14 237.47 120.50 C 240.90 121.65 244.48 120.73 247.86 119.86 C 247.32 118.56 246.79 117.25 246.19 115.98 C 250.48 119.21 254.93 122.87 257.09 127.91 C 257.25 129.62 257.35 131.33 257.47 133.05 C 250.60 134.06 243.28 133.26 237.16 129.85 C 231.33 126.66 225.45 123.58 219.67 120.32 C 213.52 116.87 206.08 115.21 201.32 109.66 C 199.99 108.36 201.19 106.44 201.22 104.87 C 200.90 104.88 200.25 104.91 199.92 104.93 Z" fill="#fba510" opacity="1.00" stroke="#fba510" stroke-width="0.25"/>
<path d="M 194.11 109.57 C 195.42 107.42 197.58 105.81 199.92 104.93 C 200.25 104.91 200.90 104.88 201.22 104.87 C 201.19 106.44 199.99 108.36 201.32 109.66 C 206.08 115.21 213.52 116.87 219.67 120.32 C 225.45 123.58 231.33 126.66 237.16 129.85 C 243.28 133.26 250.60 134.06 257.47 133.05 C 257.35 131.33 257.25 129.62 257.09 127.91 C 261.64 132.13 263.62 138.33 265.42 144.10 C 262.47 144.48 259.50 144.22 256.65 143.41 C 251.58 142.05 246.27 141.59 241.34 139.73 C 232.63 136.18 224.68 131.05 217.40 125.15 C 217.19 125.85 216.78 127.24 216.57 127.93 L 216.50 128.07 C 215.94 124.96 215.66 121.24 212.78 119.29 C 209.68 116.98 205.64 117.77 202.06 117.89 C 199.89 117.69 196.87 118.60 195.44 116.45 C 194.19 114.40 194.27 111.88 194.11 109.57 Z" fill="#f88c13" opacity="1.00" stroke="#f88c13" stroke-width="0.25"/>
<path d="M 188.62 121.83 C 188.42 117.19 190.61 112.59 194.11 109.57 C 194.27 111.88 194.19 114.40 195.44 116.45 C 196.87 118.60 199.89 117.69 202.06 117.89 C 199.46 120.53 197.44 123.70 196.90 127.44 C 192.85 128.48 190.58 124.66 188.62 121.83 Z" fill="#f06d19" opacity="1.00" stroke="#f06d19" stroke-width="0.25"/>
<path d="M 159.92 115.49 C 162.52 114.08 165.11 112.57 167.95 111.70 C 168.20 111.79 168.71 111.98 168.96 112.07 C 169.07 114.29 168.67 116.82 170.32 118.61 C 173.65 122.85 178.96 124.72 183.96 126.16 C 184.47 129.07 185.10 131.96 185.84 134.82 C 180.59 132.84 174.88 133.71 169.50 132.35 C 168.25 130.34 166.77 128.50 165.24 126.72 C 165.64 126.76 166.45 126.86 166.85 126.90 C 163.42 123.88 160.50 120.17 159.92 115.49 Z" fill="#018c85" opacity="1.00" stroke="#018c85" stroke-width="0.25"/>
<path d="M 145.22 126.92 C 149.10 122.01 154.64 118.72 159.92 115.49 C 160.50 120.17 163.42 123.88 166.85 126.90 C 166.45 126.86 165.64 126.76 165.24 126.72 C 162.73 126.49 160.10 125.83 157.65 126.73 C 155.22 127.97 153.53 130.19 151.76 132.18 C 149.55 130.48 146.95 129.15 145.22 126.92 Z" fill="#066c4b" opacity="1.00" stroke="#066c4b" stroke-width="0.25"/>
<path d="M 202.06 117.89 C 205.64 117.77 209.68 116.98 212.78 119.29 C 215.66 121.24 215.94 124.96 216.50 128.07 C 214.68 133.20 209.48 136.41 204.06 135.13 C 200.43 133.99 198.10 130.91 196.90 127.44 C 197.44 123.70 199.46 120.53 202.06 117.89 Z" fill="#fdfcf5" opacity="1.00" stroke="#fdfcf5" stroke-width="0.25"/>
<path d="M 188.62 121.83 C 190.58 124.66 192.85 128.48 196.90 127.44 C 198.10 130.91 200.43 133.99 204.06 135.13 C 205.06 135.54 206.06 135.95 207.07 136.35 C 206.93 137.23 206.79 138.12 206.66 139.01 C 211.11 140.77 215.69 142.49 219.39 145.62 C 221.65 147.29 223.57 149.57 226.26 150.54 C 229.91 151.24 233.73 150.49 237.30 151.71 C 229.20 152.66 221.02 152.29 212.88 152.33 C 207.42 151.80 202.32 149.28 198.05 145.92 C 191.13 140.15 187.45 130.78 188.62 121.83 Z" fill="#e94224" opacity="1.00" stroke="#e94224" stroke-width="0.25"/>
<path d="M 201.26 125.33 C 201.51 123.38 203.72 122.56 205.42 122.34 C 205.41 124.25 205.31 126.16 205.26 128.08 C 205.85 128.00 207.05 127.85 207.65 127.77 C 208.38 125.87 209.06 123.94 209.84 122.06 C 212.00 123.94 212.93 127.43 210.63 129.60 C 207.69 133.62 199.94 130.23 201.26 125.33 Z" fill="#050302" opacity="1.00" stroke="#050302" stroke-width="0.25"/>
<path d="M 217.40 125.15 C 224.68 131.05 232.63 136.18 241.34 139.73 C 246.27 141.59 251.58 142.05 256.65 143.41 C 259.50 144.22 262.47 144.48 265.42 144.10 C 265.98 146.10 266.47 148.12 266.92 150.15 C 264.92 153.04 261.36 152.76 258.29 152.43 C 250.47 151.83 243.43 148.10 236.00 145.94 C 228.48 143.69 222.29 138.68 216.19 133.96 C 216.35 131.95 216.48 129.94 216.57 127.93 C 216.78 127.24 217.19 125.85 217.40 125.15 Z" fill="#f57316" opacity="1.00" stroke="#f57316" stroke-width="0.25"/>
<path d="M 216.50 128.07 L 216.57 127.93 C 216.48 129.94 216.35 131.95 216.19 133.96 C 222.29 138.68 228.48 143.69 236.00 145.94 C 243.43 148.10 250.47 151.83 258.29 152.43 C 261.36 152.76 264.92 153.04 266.92 150.15 C 267.95 155.34 268.47 160.66 268.08 165.95 C 264.13 163.54 260.48 160.67 256.36 158.56 C 249.82 154.98 242.40 153.35 235.03 152.78 C 227.65 152.35 220.23 153.26 212.88 152.33 C 221.02 152.29 229.20 152.66 237.30 151.71 C 233.73 150.49 229.91 151.24 226.26 150.54 C 223.57 149.57 221.65 147.29 219.39 145.62 C 215.69 142.49 211.11 140.77 206.66 139.01 C 206.79 138.12 206.93 137.23 207.07 136.35 C 206.06 135.95 205.06 135.54 204.06 135.13 C 209.48 136.41 214.68 133.20 216.50 128.07 Z" fill="#ef5a1c" opacity="1.00" stroke="#ef5a1c" stroke-width="0.25"/>
<path d="M 157.56 130.64 C 160.92 128.31 165.33 131.25 165.58 135.00 C 166.05 137.47 164.05 139.54 161.99 140.50 C 159.40 141.08 157.10 139.34 155.63 137.40 C 154.87 135.01 155.40 132.12 157.56 130.64 Z" fill="#030303" opacity="1.00" stroke="#030303" stroke-width="0.25"/>
<path d="M 169.50 132.35 C 174.88 133.71 180.59 132.84 185.84 134.82 C 188.66 141.51 192.69 148.05 199.07 151.87 C 203.66 154.97 209.15 156.08 214.39 157.57 C 212.32 158.11 210.21 158.49 208.08 158.71 C 210.50 160.69 212.77 162.85 215.25 164.77 C 218.72 167.53 223.12 168.59 227.28 169.86 C 224.10 170.81 220.85 171.62 217.53 171.87 C 212.40 169.04 209.19 163.82 204.11 160.91 C 199.77 158.38 195.81 155.27 192.45 151.54 C 186.16 144.83 176.85 142.47 170.01 136.50 C 169.82 135.12 169.65 133.73 169.50 132.35 Z" fill="#026a8f" opacity="1.00" stroke="#026a8f" stroke-width="0.25"/>
<path d="M 131.15 154.04 C 130.34 145.32 135.47 136.56 143.05 132.38 C 149.58 135.79 153.91 142.05 157.77 148.11 C 159.26 149.94 158.53 152.33 158.42 154.45 C 153.49 155.89 148.03 156.53 143.88 159.80 C 142.11 165.55 143.45 171.76 145.58 177.24 C 137.16 172.73 131.16 163.71 131.15 154.04 Z" fill="#010101" opacity="1.00" stroke="#010101" stroke-width="0.25"/>
<path d="M 159.52 134.13 C 160.90 132.92 162.30 135.42 160.96 136.32 C 159.63 137.34 158.25 135.02 159.52 134.13 Z" fill="#fdfdfd" opacity="1.00" stroke="#fdfdfd" stroke-width="0.25"/>
<path d="M 170.01 136.50 C 176.85 142.47 186.16 144.83 192.45 151.54 C 195.81 155.27 199.77 158.38 204.11 160.91 C 209.19 163.82 212.40 169.04 217.53 171.87 C 214.14 173.28 210.69 174.54 207.27 175.86 C 202.59 171.80 198.38 167.09 192.91 164.05 C 188.77 161.69 185.16 158.56 181.80 155.21 C 177.14 150.42 171.45 146.85 165.97 143.10 C 167.74 141.18 169.04 138.91 170.01 136.50 Z" fill="#015991" opacity="1.00" stroke="#015991" stroke-width="0.25"/>
<path d="M 164.99 142.47 L 165.97 143.10 C 171.45 146.85 177.14 150.42 181.80 155.21 C 185.16 158.56 188.77 161.69 192.91 164.05 C 198.38 167.09 202.59 171.80 207.27 175.86 C 203.51 177.76 199.93 179.97 196.32 182.12 C 196.10 181.84 195.65 181.28 195.43 180.99 C 191.87 175.95 185.62 173.99 181.65 169.36 C 176.91 164.12 170.86 159.95 167.33 153.69 C 165.57 150.70 165.15 147.17 164.94 143.77 L 164.99 142.47 Z" fill="#004685" opacity="1.00" stroke="#004685" stroke-width="0.25"/>
<path d="M 162.70 143.53 C 163.26 143.59 164.38 143.71 164.94 143.77 C 165.15 147.17 165.57 150.70 167.33 153.69 C 170.86 159.95 176.91 164.12 181.65 169.36 C 185.62 173.99 191.87 175.95 195.43 180.99 C 191.90 183.57 188.76 187.71 184.06 187.86 C 181.50 188.06 180.45 185.44 179.49 183.57 C 176.87 177.82 173.71 172.23 169.44 167.54 C 167.40 165.24 164.54 163.60 163.08 160.83 C 163.19 157.86 164.15 155.02 164.90 152.18 C 164.51 152.39 163.73 152.79 163.34 153.00 C 163.54 149.82 163.29 146.65 162.70 143.53 Z" fill="#043377" opacity="1.00" stroke="#043377" stroke-width="0.25"/>
<path d="M 163.34 153.00 C 163.73 152.79 164.51 152.39 164.90 152.18 C 164.15 155.02 163.19 157.86 163.08 160.83 C 164.54 163.60 167.40 165.24 169.44 167.54 C 173.71 172.23 176.87 177.82 179.49 183.57 C 180.45 185.44 181.50 188.06 184.06 187.86 C 188.76 187.71 191.90 183.57 195.43 180.99 C 195.65 181.28 196.10 181.84 196.32 182.12 C 190.27 186.70 185.14 192.27 180.22 198.01 C 179.30 188.34 175.97 178.73 169.93 171.06 C 167.04 167.31 163.07 164.67 159.22 162.02 C 160.48 158.96 161.90 155.97 163.34 153.00 Z" fill="#072260" opacity="1.00" stroke="#072260" stroke-width="0.25"/>
<path d="M 214.39 157.57 L 215.03 157.43 C 217.14 157.48 219.31 157.53 221.33 158.21 C 222.78 159.60 223.54 161.56 225.02 162.93 C 227.94 165.45 231.42 167.14 234.79 168.95 C 233.10 169.28 231.42 169.61 229.73 169.87 C 229.12 169.86 227.89 169.86 227.28 169.86 C 223.12 168.59 218.72 167.53 215.25 164.77 C 212.77 162.85 210.50 160.69 208.08 158.71 C 210.21 158.49 212.32 158.11 214.39 157.57 Z" fill="#017daa" opacity="1.00" stroke="#017daa" stroke-width="0.25"/>
<path d="M 215.03 157.43 C 223.40 157.51 231.85 156.60 240.17 157.85 C 235.89 158.03 231.45 157.94 227.48 159.79 C 231.14 163.27 235.64 165.57 240.08 167.86 C 243.60 169.61 245.83 173.46 249.83 174.27 C 254.92 175.67 259.61 172.33 264.64 172.05 C 263.95 170.56 263.30 169.05 262.59 167.57 C 266.03 169.42 269.15 171.78 272.03 174.40 C 264.99 174.31 257.82 175.38 251.47 178.57 C 249.41 179.48 247.55 180.88 245.35 181.44 C 241.57 181.67 238.09 183.22 235.44 185.93 C 233.58 183.88 230.99 182.99 228.31 182.65 C 230.75 181.03 232.61 178.74 232.67 175.69 C 234.51 172.40 239.05 172.44 242.06 170.66 C 237.98 170.02 233.85 169.81 229.73 169.87 C 231.42 169.61 233.10 169.28 234.79 168.95 C 231.42 167.14 227.94 165.45 225.02 162.93 C 223.54 161.56 222.78 159.60 221.33 158.21 C 219.31 157.53 217.14 157.48 215.03 157.43 Z" fill="#0298ab" opacity="1.00" stroke="#0298ab" stroke-width="0.25"/>
<path d="M 227.48 159.79 C 231.45 157.94 235.89 158.03 240.17 157.85 C 246.18 158.70 251.91 160.98 257.30 163.71 C 259.18 164.78 261.30 165.77 262.59 167.57 C 263.30 169.05 263.95 170.56 264.64 172.05 C 259.61 172.33 254.92 175.67 249.83 174.27 C 245.83 173.46 243.60 169.61 240.08 167.86 C 235.64 165.57 231.14 163.27 227.48 159.79 Z" fill="#02aabe" opacity="1.00" stroke="#02aabe" stroke-width="0.25"/>
<path d="M 332.25 162.86 C 333.24 162.86 334.19 163.22 335.15 163.46 C 333.10 166.33 331.13 169.28 329.57 172.46 C 323.84 179.55 315.36 184.68 306.51 186.89 C 307.81 184.03 311.56 183.07 312.07 179.76 C 310.19 179.03 308.33 178.25 306.45 177.55 C 310.19 175.98 314.06 174.70 317.61 172.71 C 320.43 171.20 322.77 168.95 325.61 167.45 C 328.06 166.27 330.02 164.37 332.25 162.86 Z" fill="#04467e" opacity="1.00" stroke="#04467e" stroke-width="0.25"/>
<path d="M 321.52 185.61 C 328.42 180.21 334.76 174.09 339.95 167.00 C 338.06 179.82 330.20 191.20 320.39 199.39 C 315.62 202.99 310.19 205.95 304.32 207.24 C 305.28 205.85 306.66 204.88 308.21 204.23 C 312.83 202.12 317.41 199.67 321.04 196.05 C 324.20 192.88 326.72 189.16 329.57 185.72 C 329.34 184.95 329.11 184.18 328.89 183.40 C 326.46 184.22 323.99 184.94 321.52 185.61 Z" fill="#0c2356" opacity="1.00" stroke="#0c2356" stroke-width="0.25"/>
<path d="M 197.97 186.68 C 206.21 180.08 216.51 176.54 226.84 174.99 C 219.69 180.11 213.69 186.94 210.71 195.32 C 208.18 192.78 206.26 189.71 205.07 186.33 C 202.70 186.38 200.33 186.44 197.97 186.68 Z" fill="#f38c19" opacity="1.00" stroke="#f38c19" stroke-width="0.25"/>
<path d="M 222.13 185.14 C 225.29 181.63 228.59 178.13 232.67 175.69 C 232.61 178.74 230.75 181.03 228.31 182.65 C 230.99 182.99 233.58 183.88 235.44 185.93 C 238.09 183.22 241.57 181.67 245.35 181.44 C 242.63 184.20 239.47 186.46 236.66 189.11 C 235.92 192.79 235.73 196.56 235.53 200.30 C 231.80 201.32 228.04 202.25 224.23 202.91 C 223.14 201.67 222.04 200.44 220.92 199.23 C 220.97 199.66 221.08 200.54 221.14 200.97 C 219.66 197.85 219.02 194.41 218.63 191.01 C 219.10 188.73 220.72 186.91 222.13 185.14 Z" fill="#018f90" opacity="1.00" stroke="#018f90" stroke-width="0.25"/>
<path d="M 300.24 178.37 C 302.30 178.10 304.35 177.31 306.45 177.55 C 308.33 178.25 310.19 179.03 312.07 179.76 C 311.56 183.07 307.81 184.03 306.51 186.89 L 306.24 187.33 C 299.21 189.03 291.74 190.43 284.58 188.72 C 289.10 186.97 293.95 186.63 298.75 186.84 C 298.10 186.43 297.45 186.02 296.81 185.62 C 297.42 184.18 298.02 182.74 298.62 181.29 C 294.98 180.74 291.37 179.99 287.73 179.38 C 291.92 179.37 296.11 179.09 300.24 178.37 Z" fill="#035d9a" opacity="1.00" stroke="#035d9a" stroke-width="0.25"/>
<path d="M 240.99 191.17 C 249.82 182.33 262.57 177.72 275.00 178.20 C 283.41 178.46 291.83 178.99 300.24 178.37 C 296.11 179.09 291.92 179.37 287.73 179.38 C 284.95 179.20 282.18 179.06 279.40 178.89 C 281.25 181.02 281.38 183.69 280.17 186.17 C 277.25 186.15 274.32 186.35 271.41 186.60 C 268.26 186.69 265.26 185.54 262.22 184.92 C 262.86 185.56 263.50 186.19 264.14 186.83 C 263.49 188.47 262.90 190.30 261.28 191.25 C 256.99 194.19 252.90 197.43 248.38 200.02 C 246.87 198.67 245.26 197.45 243.58 196.34 C 241.85 195.22 241.73 192.92 240.99 191.17 Z" fill="#0393b1" opacity="1.00" stroke="#0393b1" stroke-width="0.25"/>
<path d="M 279.40 178.89 C 282.18 179.06 284.95 179.20 287.73 179.38 C 291.37 179.99 294.98 180.74 298.62 181.29 C 298.02 182.74 297.42 184.18 296.81 185.62 C 297.45 186.02 298.10 186.43 298.75 186.84 C 293.95 186.63 289.10 186.97 284.58 188.72 C 280.14 189.09 275.55 188.23 271.41 186.60 C 274.32 186.35 277.25 186.15 280.17 186.17 C 281.38 183.69 281.25 181.02 279.40 178.89 Z" fill="#0673aa" opacity="1.00" stroke="#0673aa" stroke-width="0.25"/>
<path d="M 321.52 185.61 C 323.99 184.94 326.46 184.22 328.89 183.40 C 329.11 184.18 329.34 184.95 329.57 185.72 C 326.72 189.16 324.20 192.88 321.04 196.05 C 317.41 199.67 312.83 202.12 308.21 204.23 C 306.66 204.88 305.28 205.85 304.32 207.24 C 299.86 208.39 295.17 208.88 290.62 208.01 C 293.02 207.33 295.70 207.08 297.77 205.61 C 300.03 201.99 301.33 197.44 305.66 195.67 C 304.33 194.87 303.01 194.05 301.69 193.23 C 308.69 191.76 315.04 188.47 321.52 185.61 Z" fill="#033976" opacity="1.00" stroke="#033976" stroke-width="0.25"/>
<path d="M 197.97 186.68 C 200.33 186.44 202.70 186.38 205.07 186.33 C 206.26 189.71 208.18 192.78 210.71 195.32 C 208.36 203.19 207.38 211.57 209.05 219.69 C 210.15 225.22 211.82 230.62 214.02 235.81 C 212.79 236.35 211.57 236.89 210.34 237.44 C 208.92 233.81 207.26 230.24 204.85 227.15 C 201.48 222.94 199.73 217.76 196.70 213.34 C 193.17 208.05 189.86 202.55 187.73 196.54 C 190.78 192.91 193.89 189.19 197.97 186.68 Z" fill="#ef6c1d" opacity="1.00" stroke="#ef6c1d" stroke-width="0.25"/>
<path d="M 261.28 191.25 C 262.90 190.30 263.49 188.47 264.14 186.83 C 266.64 188.02 269.33 188.98 271.50 190.75 C 271.91 191.91 272.26 193.09 272.63 194.27 C 266.75 198.92 261.66 204.46 256.03 209.39 C 254.26 208.71 252.48 208.06 250.73 207.36 C 247.14 204.81 245.05 200.40 243.58 196.34 C 245.26 197.45 246.87 198.67 248.38 200.02 C 252.90 197.43 256.99 194.19 261.28 191.25 Z" fill="#0181a1" opacity="1.00" stroke="#0181a1" stroke-width="0.25"/>
<path d="M 235.53 200.30 C 235.73 196.56 235.92 192.79 236.66 189.11 C 237.83 196.37 241.32 202.97 245.55 208.89 C 245.07 210.04 244.61 211.20 244.15 212.36 C 240.64 213.43 237.03 215.05 233.30 214.49 C 230.33 213.38 227.71 211.54 225.00 209.95 C 222.81 207.53 221.90 204.10 221.14 200.97 C 221.08 200.54 220.97 199.66 220.92 199.23 C 222.04 200.44 223.14 201.67 224.23 202.91 C 228.04 202.25 231.80 201.32 235.53 200.30 Z" fill="#15946c" opacity="1.00" stroke="#15946c" stroke-width="0.25"/>
<path d="M 272.63 194.27 C 272.26 193.09 271.91 191.91 271.50 190.75 C 274.94 191.77 278.47 192.51 281.89 193.62 C 282.91 194.65 283.89 195.73 284.87 196.81 C 281.98 200.56 279.14 204.41 275.52 207.49 C 272.79 209.77 270.28 212.28 268.04 215.02 C 268.56 216.13 269.09 217.24 269.61 218.36 C 267.70 217.76 265.70 217.53 263.71 217.41 C 258.37 215.95 254.19 211.53 250.73 207.36 C 252.48 208.06 254.26 208.71 256.03 209.39 C 261.66 204.46 266.75 198.92 272.63 194.27 Z" fill="#016a95" opacity="1.00" stroke="#016a95" stroke-width="0.25"/>
<path d="M 281.89 193.62 C 288.49 194.47 295.13 194.29 301.69 193.23 C 303.01 194.05 304.33 194.87 305.66 195.67 C 301.33 197.44 300.03 201.99 297.77 205.61 C 295.70 207.08 293.02 207.33 290.62 208.01 C 288.35 208.00 286.04 207.11 283.81 207.70 C 283.77 209.73 284.64 212.22 282.92 213.81 C 281.13 215.78 279.18 217.72 276.77 218.92 C 274.43 219.98 271.91 219.05 269.61 218.36 C 269.09 217.24 268.56 216.13 268.04 215.02 C 270.28 212.28 272.79 209.77 275.52 207.49 C 279.14 204.41 281.98 200.56 284.87 196.81 C 283.89 195.73 282.91 194.65 281.89 193.62 Z" fill="#02548a" opacity="1.00" stroke="#02548a" stroke-width="0.25"/>
<path d="M 178.94 210.80 C 181.10 205.64 183.91 200.66 187.73 196.54 C 189.86 202.55 193.17 208.05 196.70 213.34 C 199.73 217.76 201.48 222.94 204.85 227.15 C 207.26 230.24 208.92 233.81 210.34 237.44 C 211.57 236.89 212.79 236.35 214.02 235.81 C 218.17 242.50 223.21 248.75 229.77 253.24 C 233.56 256.06 238.09 257.59 242.18 259.89 C 243.31 260.78 244.39 261.73 245.49 262.66 C 245.12 263.57 244.73 264.47 244.31 265.37 C 243.49 265.38 241.84 265.40 241.02 265.41 C 244.05 267.18 247.15 268.86 249.94 270.98 C 251.23 272.15 252.50 273.34 253.80 274.50 C 252.72 276.32 251.52 278.07 250.24 279.76 C 243.89 276.85 238.63 272.24 233.25 267.89 C 240.93 281.76 256.33 290.44 272.08 290.67 C 261.70 294.44 249.79 293.94 239.22 290.72 C 227.60 286.13 217.66 277.02 212.44 265.62 C 209.10 259.20 207.36 252.10 206.14 245.01 C 205.33 249.34 205.86 253.74 206.19 258.09 C 205.27 258.13 204.34 258.18 203.42 258.22 C 202.02 255.21 200.21 252.43 198.22 249.77 C 196.34 247.33 196.18 244.13 195.39 241.26 C 195.13 238.03 197.29 235.19 198.18 232.18 C 197.27 232.81 196.38 233.46 195.49 234.10 C 192.10 230.51 189.19 226.50 186.81 222.17 C 184.79 218.23 180.55 215.32 180.50 210.54 C 180.11 210.60 179.33 210.73 178.94 210.80 Z" fill="#e85222" opacity="1.00" stroke="#e85222" stroke-width="0.25"/>
<path d="M 213.35 215.06 C 213.34 209.34 212.72 203.28 215.32 197.98 C 216.98 204.79 219.57 211.48 223.89 217.07 C 227.42 222.01 232.08 225.95 236.77 229.73 C 233.95 233.81 231.06 237.85 228.59 242.16 C 227.28 242.03 225.97 241.92 224.67 241.76 C 217.51 234.94 213.81 224.85 213.35 215.06 Z" fill="#9aa031" opacity="1.00" stroke="#9aa031" stroke-width="0.25"/>
<path d="M 282.92 213.81 C 284.64 212.22 283.77 209.73 283.81 207.70 C 286.90 209.04 290.03 210.30 293.01 211.87 C 292.56 211.87 291.67 211.86 291.22 211.85 C 291.91 212.81 292.61 213.77 293.32 214.72 C 291.00 215.82 288.97 217.39 287.31 219.34 C 285.38 221.68 282.45 222.73 279.69 223.74 C 274.03 222.78 268.42 220.73 263.71 217.41 C 265.70 217.53 267.70 217.76 269.61 218.36 C 271.91 219.05 274.43 219.98 276.77 218.92 C 279.18 217.72 281.13 215.78 282.92 213.81 Z" fill="#024778" opacity="1.00" stroke="#024778" stroke-width="0.25"/>
<path d="M 245.55 208.89 C 250.09 213.69 254.90 218.29 260.66 221.63 C 255.16 222.98 253.71 228.91 249.91 232.36 C 239.76 227.54 230.09 220.20 225.00 209.95 C 227.71 211.54 230.33 213.38 233.30 214.49 C 237.03 215.05 240.64 213.43 244.15 212.36 C 244.61 211.20 245.07 210.04 245.55 208.89 Z" fill="#2b9356" opacity="1.00" stroke="#2b9356" stroke-width="0.25"/>
<path d="M 178.94 210.80 C 179.33 210.73 180.11 210.60 180.50 210.54 C 180.55 215.32 184.79 218.23 186.81 222.17 C 189.19 226.50 192.10 230.51 195.49 234.10 C 193.88 237.80 192.01 241.38 190.28 245.02 C 190.16 244.51 189.92 243.49 189.80 242.98 C 188.64 245.15 187.55 247.36 186.51 249.60 C 184.58 245.33 182.07 241.37 179.49 237.48 C 176.21 232.79 177.21 226.76 176.27 221.41 C 176.17 217.70 177.79 214.25 178.94 210.80 Z" fill="#e03a26" opacity="1.00" stroke="#e03a26" stroke-width="0.25"/>
<path d="M 299.08 213.52 C 309.42 214.50 320.17 215.02 330.04 211.15 C 318.72 221.29 302.88 227.55 287.61 224.86 C 293.25 223.52 299.94 224.50 304.57 220.42 C 306.30 216.82 301.27 215.23 299.08 213.52 Z" fill="#0b1e54" opacity="1.00" stroke="#0b1e54" stroke-width="0.25"/>
<path d="M 291.22 211.85 C 291.67 211.86 292.56 211.87 293.01 211.87 C 295.08 212.19 297.14 212.71 299.08 213.52 C 301.27 215.23 306.30 216.82 304.57 220.42 C 299.94 224.50 293.25 223.52 287.61 224.86 C 284.92 225.06 282.28 224.35 279.69 223.74 C 282.45 222.73 285.38 221.68 287.31 219.34 C 288.97 217.39 291.00 215.82 293.32 214.72 C 292.61 213.77 291.91 212.81 291.22 211.85 Z" fill="#023667" opacity="1.00" stroke="#023667" stroke-width="0.25"/>
<path d="M 176.62 246.85 C 174.28 238.71 174.45 229.66 176.27 221.41 C 177.21 226.76 176.21 232.79 179.49 237.48 C 182.07 241.37 184.58 245.33 186.51 249.60 C 187.55 247.36 188.64 245.15 189.80 242.98 C 189.92 243.49 190.16 244.51 190.28 245.02 C 189.46 249.01 188.66 253.01 187.85 256.99 C 186.99 258.67 186.03 260.32 184.76 261.73 C 182.90 261.71 182.60 259.54 181.89 258.24 C 180.44 254.31 179.01 250.33 176.62 246.85 Z" fill="#c41e2a" opacity="1.00" stroke="#c41e2a" stroke-width="0.25"/>
<path d="M 249.91 232.36 C 253.71 228.91 255.16 222.98 260.66 221.63 C 264.26 223.79 268.11 225.51 272.06 226.94 L 271.91 227.57 C 271.56 230.38 270.47 233.06 268.00 234.63 C 267.91 235.07 267.73 235.93 267.64 236.36 C 261.58 235.82 255.63 234.41 249.91 232.36 Z" fill="#217c4f" opacity="1.00" stroke="#217c4f" stroke-width="0.25"/>
<path d="M 271.91 227.57 C 275.12 227.68 278.08 229.10 281.19 229.75 C 286.09 230.96 291.16 231.05 296.16 231.41 C 287.17 235.12 277.35 236.76 267.64 236.36 C 267.73 235.93 267.91 235.07 268.00 234.63 C 270.47 233.06 271.56 230.38 271.91 227.57 Z" fill="#0b4d4f" opacity="1.00" stroke="#0b4d4f" stroke-width="0.25"/>
<path d="M 228.59 242.16 C 231.06 237.85 233.95 233.81 236.77 229.73 C 238.89 231.06 241.60 231.75 243.17 233.79 C 244.71 237.03 245.52 240.59 247.21 243.78 C 250.49 250.10 255.93 255.02 261.95 258.71 C 248.01 258.17 233.83 252.54 224.67 241.76 C 225.97 241.92 227.28 242.03 228.59 242.16 Z" fill="#7c9e35" opacity="1.00" stroke="#7c9e35" stroke-width="0.25"/>
<path d="M 195.39 241.26 C 196.18 244.13 196.34 247.33 198.22 249.77 C 200.21 252.43 202.02 255.21 203.42 258.22 C 204.34 258.18 205.27 258.13 206.19 258.09 C 208.15 271.10 215.57 283.16 226.37 290.67 C 228.59 292.23 231.09 293.45 232.88 295.55 C 220.22 293.42 207.73 287.57 199.37 277.60 C 194.16 271.35 192.91 262.87 193.15 254.98 C 193.28 250.35 193.08 245.45 195.39 241.26 Z" fill="#db2e24" opacity="1.00" stroke="#db2e24" stroke-width="0.25"/>
<path d="M 176.62 246.85 C 179.01 250.33 180.44 254.31 181.89 258.24 C 182.60 259.54 182.90 261.71 184.76 261.73 C 186.03 260.32 186.99 258.67 187.85 256.99 C 187.50 262.70 187.56 268.43 188.48 274.09 C 184.69 269.68 182.04 264.43 179.85 259.07 C 178.31 255.15 176.74 251.11 176.62 246.85 Z" fill="#991028" opacity="1.00" stroke="#991028" stroke-width="0.25"/>
<path d="M 242.18 259.89 C 254.02 263.44 266.51 265.48 278.86 263.89 C 284.02 263.28 288.91 261.45 293.93 260.21 C 292.37 261.55 290.72 262.84 288.85 263.74 C 281.77 267.27 274.04 270.05 266.02 269.77 C 258.45 270.10 250.79 269.24 243.84 266.08 L 244.31 265.37 C 244.73 264.47 245.12 263.57 245.49 262.66 C 244.39 261.73 243.31 260.78 242.18 259.89 Z" fill="#e77420" opacity="1.00" stroke="#e77420" stroke-width="0.25"/>
<path d="M 249.94 270.98 C 258.96 274.45 268.22 277.70 277.97 278.16 C 288.89 279.04 299.89 277.18 310.05 273.16 C 293.80 286.87 269.09 289.69 250.24 279.76 C 251.52 278.07 252.72 276.32 253.80 274.50 C 252.50 273.34 251.23 272.15 249.94 270.98 Z" fill="#ee741a" opacity="1.00" stroke="#ee741a" stroke-width="0.25"/>
<path d="M 200.01 326.59 C 209.30 317.28 223.02 313.39 235.93 313.58 C 236.85 314.47 237.78 315.36 238.71 316.26 C 233.06 320.35 227.48 324.70 221.06 327.54 C 217.98 327.29 215.03 326.24 211.97 325.88 C 207.97 325.24 203.98 326.21 200.01 326.59 Z" fill="#e3b62d" opacity="1.00" stroke="#e3b62d" stroke-width="0.25"/>
<path d="M 235.93 313.58 C 240.79 313.41 245.69 313.47 250.42 314.71 C 250.38 315.22 250.31 316.25 250.27 316.77 C 245.92 320.23 242.21 324.40 238.00 328.02 C 235.46 330.26 232.04 331.01 228.75 331.32 C 225.92 330.85 223.57 328.85 221.06 327.54 C 227.48 324.70 233.06 320.35 238.71 316.26 C 237.78 315.36 236.85 314.47 235.93 313.58 Z" fill="#c6b731" opacity="1.00" stroke="#c6b731" stroke-width="0.25"/>
<path d="M 250.42 314.71 C 253.31 315.25 256.21 315.80 259.06 316.52 C 253.38 323.00 248.21 330.08 240.99 334.99 C 237.16 338.61 231.58 337.83 226.84 339.08 C 227.21 337.37 227.42 335.64 227.62 333.90 C 229.74 334.59 231.87 335.27 234.03 335.84 C 232.33 334.26 230.55 332.78 228.75 331.32 C 232.04 331.01 235.46 330.26 238.00 328.02 C 242.21 324.40 245.92 320.23 250.27 316.77 C 250.31 316.25 250.38 315.22 250.42 314.71 Z" fill="#afb136" opacity="1.00" stroke="#afb136" stroke-width="0.25"/>
<path d="M 240.99 334.99 C 248.21 330.08 253.38 323.00 259.06 316.52 C 261.87 317.32 264.62 318.33 267.30 319.52 C 254.77 329.14 245.78 343.10 231.45 350.39 C 228.85 348.14 226.39 345.55 225.70 342.06 C 226.11 341.08 226.50 340.09 226.84 339.08 C 231.58 337.83 237.16 338.61 240.99 334.99 Z" fill="#9bab38" opacity="1.00" stroke="#9bab38" stroke-width="0.25"/>
<path d="M 231.45 350.39 C 245.78 343.10 254.77 329.14 267.30 319.52 C 268.91 320.11 270.51 320.75 272.08 321.46 C 264.28 325.28 259.84 332.94 253.78 338.78 C 250.41 342.12 247.70 346.03 244.70 349.70 C 241.11 354.20 235.61 356.53 231.73 360.75 C 228.01 364.67 223.94 368.26 219.58 371.46 C 217.97 369.67 216.45 367.78 215.09 365.79 C 221.34 361.55 225.10 354.58 231.45 350.39 Z" fill="#88a239" opacity="1.00" stroke="#88a239" stroke-width="0.25"/>
<path d="M 253.78 338.78 C 259.84 332.94 264.28 325.28 272.08 321.46 C 274.10 322.58 276.16 323.65 278.19 324.74 C 273.56 328.94 269.59 333.77 265.20 338.21 C 261.69 341.80 259.22 346.20 255.99 350.02 C 253.65 352.78 251.45 355.68 249.89 358.96 C 249.65 359.47 249.18 360.48 248.94 360.98 C 248.35 360.47 247.76 359.97 247.16 359.48 C 244.26 361.78 241.55 364.33 239.42 367.37 C 236.35 371.86 231.12 373.88 226.81 376.88 C 225.42 376.40 224.03 375.94 222.67 375.41 C 221.46 374.24 220.58 372.79 219.58 371.46 C 223.94 368.26 228.01 364.67 231.73 360.75 C 235.61 356.53 241.11 354.20 244.70 349.70 C 247.70 346.03 250.41 342.12 253.78 338.78 Z" fill="#72a041" opacity="1.00" stroke="#72a041" stroke-width="0.25"/>
<path d="M 265.20 338.21 C 269.59 333.77 273.56 328.94 278.19 324.74 C 279.73 325.72 281.30 326.66 282.89 327.57 C 274.05 333.53 268.21 342.57 262.04 351.03 C 258.97 355.52 253.98 359.08 253.55 364.92 C 252.16 363.04 250.76 361.14 249.89 358.96 C 251.45 355.68 253.65 352.78 255.99 350.02 C 259.22 346.20 261.69 341.80 265.20 338.21 Z" fill="#549c4c" opacity="1.00" stroke="#549c4c" stroke-width="0.25"/>
<path d="M 262.04 351.03 C 268.21 342.57 274.05 333.53 282.89 327.57 C 284.69 328.82 286.46 330.14 288.18 331.52 C 280.36 334.93 275.94 342.45 270.81 348.82 C 267.84 352.63 266.52 357.55 262.88 360.87 C 260.42 363.16 258.67 366.03 257.30 369.07 C 256.05 367.69 254.81 366.29 253.55 364.92 C 253.98 359.08 258.97 355.52 262.04 351.03 Z" fill="#3f9953" opacity="1.00" stroke="#3f9953" stroke-width="0.25"/>
<path d="M 188.74 337.28 C 195.75 331.96 204.74 329.89 213.43 330.53 C 214.21 335.96 210.83 340.60 207.56 344.55 C 206.14 346.26 204.22 347.43 202.36 348.62 C 201.04 346.04 199.96 343.21 197.77 341.22 C 195.23 338.98 191.63 338.86 188.74 337.28 Z" fill="#bc832b" opacity="1.00" stroke="#bc832b" stroke-width="0.25"/>
<path d="M 213.43 330.53 C 218.28 331.05 223.15 331.89 227.62 333.90 C 227.42 335.64 227.21 337.37 226.84 339.08 C 226.50 340.09 226.11 341.08 225.70 342.06 C 219.71 346.72 214.29 352.25 207.44 355.67 C 205.87 354.28 204.26 352.93 202.73 351.51 C 202.30 350.61 202.47 349.57 202.36 348.62 C 204.22 347.43 206.14 346.26 207.56 344.55 C 210.83 340.60 214.21 335.96 213.43 330.53 Z" fill="#ac9530" opacity="1.00" stroke="#ac9530" stroke-width="0.25"/>
<path d="M 270.81 348.82 C 275.94 342.45 280.36 334.93 288.18 331.52 C 291.56 334.12 294.91 336.79 297.88 339.87 C 295.56 339.36 293.25 338.67 290.87 338.52 C 287.47 337.83 284.84 340.49 282.65 342.65 C 278.35 347.12 274.68 352.25 272.12 357.91 C 272.54 359.53 274.05 360.49 275.14 361.66 C 270.78 364.65 267.05 368.44 264.22 372.91 C 264.73 374.01 265.23 375.11 265.77 376.20 C 262.53 374.36 259.84 371.76 257.30 369.07 C 258.67 366.03 260.42 363.16 262.88 360.87 C 266.52 357.55 267.84 352.63 270.81 348.82 Z" fill="#28945b" opacity="1.00" stroke="#28945b" stroke-width="0.25"/>
<path d="M 282.65 342.65 C 284.84 340.49 287.47 337.83 290.87 338.52 C 292.62 339.73 294.25 341.12 295.93 342.43 C 287.93 344.59 282.74 351.94 278.85 358.79 C 279.79 359.97 280.73 361.17 281.73 362.32 C 278.31 361.36 275.14 359.74 272.12 357.91 C 274.68 352.25 278.35 347.12 282.65 342.65 Z" fill="#158f68" opacity="1.00" stroke="#158f68" stroke-width="0.25"/>
<path d="M 328.82 353.89 C 341.74 354.40 354.15 349.15 363.96 341.01 C 355.72 357.35 337.77 367.76 319.57 367.56 C 322.51 366.16 325.59 365.04 328.42 363.42 C 331.00 361.91 331.93 358.92 332.95 356.31 C 331.58 355.48 330.22 354.65 328.82 353.89 Z" fill="#0a2158" opacity="1.00" stroke="#0a2158" stroke-width="0.25"/>
<path d="M 183.45 343.53 C 185.48 340.70 189.31 341.82 191.90 343.14 C 196.20 344.97 199.01 349.39 199.46 353.96 C 198.20 356.39 195.49 357.66 193.86 359.85 C 189.98 364.65 190.13 371.31 191.47 377.03 C 180.12 370.93 175.57 354.03 183.45 343.53 Z" fill="#020202" opacity="1.00" stroke="#020202" stroke-width="0.25"/>
<path d="M 207.44 355.67 C 214.29 352.25 219.71 346.72 225.70 342.06 C 226.39 345.55 228.85 348.14 231.45 350.39 C 225.10 354.58 221.34 361.55 215.09 365.79 C 211.97 362.58 208.51 359.75 205.06 356.92 C 203.30 355.68 203.20 353.40 202.73 351.51 C 204.26 352.93 205.87 354.28 207.44 355.67 Z" fill="#9a9832" opacity="1.00" stroke="#9a9832" stroke-width="0.25"/>
<path d="M 278.85 358.79 C 282.74 351.94 287.93 344.59 295.93 342.43 C 298.43 343.83 300.92 345.23 303.37 346.72 C 301.51 351.68 297.83 355.60 294.75 359.82 C 292.94 362.48 289.58 363.02 286.71 363.82 C 284.95 363.76 283.23 363.20 281.73 362.32 C 280.73 361.17 279.79 359.97 278.85 358.79 Z" fill="#027e75" opacity="1.00" stroke="#027e75" stroke-width="0.25"/>
<path d="M 294.75 359.82 C 297.83 355.60 301.51 351.68 303.37 346.72 C 306.74 348.47 310.35 349.72 313.73 351.44 C 314.21 352.69 315.17 354.01 314.83 355.41 C 312.42 360.69 308.38 365.37 302.68 367.15 C 297.26 366.84 291.78 365.82 286.71 363.82 C 289.58 363.02 292.94 362.48 294.75 359.82 Z" fill="#016473" opacity="1.00" stroke="#016473" stroke-width="0.25"/>
<path d="M 314.83 355.41 C 315.17 354.01 314.21 352.69 313.73 351.44 C 318.67 352.76 323.73 353.53 328.82 353.89 C 330.22 354.65 331.58 355.48 332.95 356.31 C 331.93 358.92 331.00 361.91 328.42 363.42 C 325.59 365.04 322.51 366.16 319.57 367.56 C 314.00 368.37 308.25 367.85 302.68 367.15 C 308.38 365.37 312.42 360.69 314.83 355.41 Z" fill="#014563" opacity="1.00" stroke="#014563" stroke-width="0.25"/>
<path d="M 247.16 359.48 C 247.76 359.97 248.35 360.47 248.94 360.98 C 250.47 362.66 251.19 364.91 252.26 366.89 C 250.41 367.17 248.55 367.41 246.70 367.63 C 244.29 371.77 242.15 376.06 239.76 380.21 C 238.77 379.58 237.79 378.96 236.80 378.35 C 246.50 390.68 260.11 400.82 276.07 402.62 C 264.43 404.42 252.45 401.16 242.18 395.66 C 234.09 390.73 227.59 383.46 222.67 375.41 C 224.03 375.94 225.42 376.40 226.81 376.88 C 231.12 373.88 236.35 371.86 239.42 367.37 C 241.55 364.33 244.26 361.78 247.16 359.48 Z" fill="#5f9437" opacity="1.00" stroke="#5f9437" stroke-width="0.25"/>
<path d="M 264.22 372.91 C 267.05 368.44 270.78 364.65 275.14 361.66 C 278.71 363.71 282.26 365.80 285.94 367.65 C 283.47 370.43 280.08 372.71 278.99 376.45 C 278.46 379.00 275.39 379.21 273.47 380.25 L 272.74 380.54 C 270.42 379.08 267.84 378.02 265.77 376.20 C 265.23 375.11 264.73 374.01 264.22 372.91 Z" fill="#068567" opacity="1.00" stroke="#068567" stroke-width="0.25"/>
<path d="M 246.70 367.63 C 248.55 367.41 250.41 367.17 252.26 366.89 C 253.89 369.34 255.45 371.85 256.90 374.42 C 254.91 375.47 252.40 376.07 251.17 378.15 C 249.68 380.58 248.86 383.35 247.89 386.02 C 244.90 384.49 242.17 382.53 239.76 380.21 C 242.15 376.06 244.29 371.77 246.70 367.63 Z" fill="#479646" opacity="1.00" stroke="#479646" stroke-width="0.25"/>
<path d="M 278.99 376.45 C 280.08 372.71 283.47 370.43 285.94 367.65 C 290.85 369.68 296.03 370.93 301.07 372.56 C 300.63 372.60 299.73 372.67 299.28 372.71 C 300.15 373.64 301.04 374.58 301.93 375.52 C 300.93 377.79 300.21 380.44 298.09 381.95 C 295.45 382.82 292.71 383.38 290.23 384.67 C 284.49 384.72 278.55 382.98 273.47 380.25 C 275.39 379.21 278.46 379.00 278.99 376.45 Z" fill="#01606b" opacity="1.00" stroke="#01606b" stroke-width="0.25"/>
<path d="M 301.07 372.56 C 311.96 374.08 323.19 374.64 334.02 372.40 C 331.91 375.36 328.24 376.49 325.20 378.22 C 314.47 383.37 302.15 387.05 290.23 384.67 C 292.71 383.38 295.45 382.82 298.09 381.95 C 300.21 380.44 300.93 377.79 301.93 375.52 C 301.04 374.58 300.15 373.64 299.28 372.71 C 299.73 372.67 300.63 372.60 301.07 372.56 Z" fill="#044160" opacity="1.00" stroke="#044160" stroke-width="0.25"/>
<path d="M 251.17 378.15 C 252.40 376.07 254.91 375.47 256.90 374.42 C 259.42 376.81 262.02 379.14 264.51 381.57 C 261.51 384.05 259.05 387.08 256.88 390.29 C 253.78 389.09 250.80 387.61 247.89 386.02 C 248.86 383.35 249.68 380.58 251.17 378.15 Z" fill="#288a50" opacity="1.00" stroke="#288a50" stroke-width="0.25"/>
<path d="M 256.88 390.29 C 259.05 387.08 261.51 384.05 264.51 381.57 C 271.31 386.13 278.92 389.74 287.13 390.74 C 285.90 392.39 283.72 392.53 281.90 393.04 C 273.49 394.82 264.85 393.09 256.88 390.29 Z" fill="#066055" opacity="1.00" stroke="#066055" stroke-width="0.25"/>
<path d="M 184.37 441.69 C 187.52 438.27 189.35 433.77 193.11 430.91 C 193.50 437.51 193.46 444.16 193.21 450.77 C 192.58 450.80 191.32 450.88 190.69 450.92 C 190.52 446.93 190.59 442.92 190.41 438.93 C 188.20 441.35 186.40 444.09 184.69 446.87 C 182.54 444.12 180.40 441.37 178.46 438.48 C 178.30 438.65 177.98 439.00 177.82 439.18 C 178.17 442.91 178.26 446.67 178.05 450.42 C 177.38 450.50 176.03 450.66 175.36 450.74 C 175.32 444.34 174.96 437.92 175.53 431.53 C 179.48 433.88 181.54 438.23 184.37 441.69 Z" fill="#030303" opacity="1.00" stroke="#030303" stroke-width="0.25"/>
<path d="M 195.94 450.86 C 197.65 444.24 200.40 437.82 203.66 431.83 C 206.76 437.98 209.48 444.34 211.97 450.76 C 211.38 450.71 210.20 450.60 209.61 450.54 C 208.96 449.51 208.29 448.49 207.61 447.49 C 205.22 447.49 202.83 447.35 200.44 447.53 C 199.40 448.23 199.00 449.51 198.34 450.53 C 197.74 450.61 196.54 450.78 195.94 450.86 Z" fill="#030303" opacity="1.00" stroke="#030303" stroke-width="0.25"/>
<path d="M 218.40 432.42 C 221.85 430.43 225.98 431.72 228.63 434.39 C 228.62 435.02 228.61 436.29 228.61 436.92 C 226.00 436.18 223.90 433.68 220.96 434.50 C 215.37 435.44 214.37 444.10 218.88 447.02 C 221.71 449.43 225.51 447.63 228.74 447.44 C 228.10 452.10 221.84 451.87 218.55 450.32 C 211.15 447.39 211.12 435.51 218.40 432.42 Z" fill="#040404" opacity="1.00" stroke="#040404" stroke-width="0.25"/>
<path d="M 243.34 432.01 C 244.23 432.06 246.01 432.17 246.90 432.22 C 249.20 438.40 251.43 444.60 253.75 450.77 C 252.75 450.66 251.74 450.55 250.74 450.44 C 248.38 444.25 245.74 438.18 243.34 432.01 Z" fill="#020202" opacity="1.00" stroke="#020202" stroke-width="0.25"/>
<path d="M 250.39 431.69 C 250.99 431.75 252.20 431.88 252.80 431.94 C 255.14 435.18 255.88 439.34 257.44 443.00 C 259.05 439.55 260.12 435.90 261.46 432.35 C 261.81 432.29 262.50 432.16 262.84 432.10 C 264.40 435.40 265.68 438.82 267.13 442.17 C 268.93 438.62 269.65 434.59 271.87 431.24 C 274.23 435.39 275.59 440.02 277.90 444.20 C 279.69 440.06 280.59 435.47 282.95 431.62 C 283.51 431.64 284.63 431.67 285.18 431.69 C 283.26 438.12 280.69 444.34 278.73 450.77 C 278.41 450.70 277.77 450.56 277.44 450.49 C 275.38 446.63 273.93 442.48 271.88 438.61 C 269.71 442.24 268.64 446.37 266.96 450.22 C 265.40 446.58 264.35 442.68 262.01 439.44 C 260.25 442.91 259.05 446.61 257.59 450.20 C 256.26 448.62 255.85 446.56 255.16 444.67 C 253.72 440.28 251.54 436.17 250.39 431.69 Z" fill="#030303" opacity="1.00" stroke="#030303" stroke-width="0.25"/>
<path d="M 287.44 432.24 C 288.01 432.07 289.16 431.72 289.73 431.54 C 289.91 437.89 289.68 444.25 289.70 450.61 C 288.98 450.58 287.52 450.53 286.79 450.50 C 287.18 444.42 286.16 438.23 287.44 432.24 Z" fill="#0d0d0d" opacity="1.00" stroke="#0d0d0d" stroke-width="0.25"/>
<path d="M 294.14 431.78 C 294.81 431.81 296.14 431.86 296.81 431.88 C 296.77 438.13 296.88 444.39 296.83 450.64 C 296.16 450.64 294.82 450.64 294.15 450.64 C 294.14 444.35 294.15 438.07 294.14 431.78 Z" fill="#000000" opacity="1.00" stroke="#000000" stroke-width="0.25"/>
<path d="M 300.66 431.49 C 304.80 433.96 307.17 438.42 311.07 441.22 C 311.18 438.16 311.19 435.10 311.22 432.05 C 311.88 432.05 313.20 432.04 313.86 432.03 C 313.84 438.03 313.86 444.03 313.84 450.03 C 310.22 446.91 307.83 442.43 303.76 439.90 C 303.76 443.46 303.74 447.03 303.77 450.60 C 303.01 450.58 301.51 450.53 300.75 450.50 C 300.98 444.16 300.73 437.82 300.66 431.49 Z" fill="#030303" opacity="1.00" stroke="#030303" stroke-width="0.25"/>
<path d="M 317.98 432.12 C 318.62 432.04 319.89 431.88 320.52 431.80 C 320.77 438.07 320.58 444.34 320.60 450.61 C 319.90 450.59 318.52 450.56 317.82 450.55 C 318.00 444.41 317.58 438.25 317.98 432.12 Z" fill="#0d0d0d" opacity="1.00" stroke="#0d0d0d" stroke-width="0.25"/>
<path d="M 324.55 432.02 C 328.10 432.28 332.10 431.46 335.19 433.70 C 340.20 436.88 340.78 445.31 335.69 448.67 C 332.50 451.19 328.27 450.60 324.49 450.65 C 324.59 444.44 324.51 438.23 324.55 432.02 Z" fill="#030303" opacity="1.00" stroke="#030303" stroke-width="0.25"/>
<path d="M 341.73 437.96 C 340.88 433.44 345.88 430.08 349.93 431.68 C 351.88 431.94 352.56 433.75 352.40 435.52 C 350.14 434.76 347.82 434.23 345.43 434.31 C 345.17 435.01 344.64 436.41 344.37 437.11 C 346.97 440.14 352.14 440.23 353.64 444.25 C 354.94 448.97 349.24 452.48 345.12 451.04 C 342.71 450.60 341.26 448.39 341.12 446.07 C 344.17 447.18 347.31 449.53 350.54 447.51 C 350.51 446.52 350.48 445.53 350.46 444.55 C 347.48 442.56 342.73 441.91 341.73 437.96 Z" fill="#020202" opacity="1.00" stroke="#020202" stroke-width="0.25"/>
<path d="M 230.46 451.43 C 232.40 444.64 235.52 438.14 239.03 432.01 C 241.31 438.50 244.69 444.52 247.06 450.96 C 246.39 450.91 245.04 450.79 244.37 450.74 C 243.80 449.64 243.24 448.56 242.68 447.47 C 240.06 447.59 237.36 447.10 234.81 447.76 C 233.62 449.32 232.71 451.32 230.46 451.43 Z" fill="#020202" opacity="1.00" stroke="#020202" stroke-width="0.25"/>
<path d="M 327.48 435.06 C 332.09 434.10 337.06 437.97 336.06 442.87 C 335.28 446.81 331.14 448.35 327.53 447.98 C 327.56 443.67 327.44 439.37 327.48 435.06 Z" fill="#fdfdfd" opacity="1.00" stroke="#fdfdfd" stroke-width="0.25"/>
<path d="M 238.82 438.38 C 239.50 440.45 240.31 442.47 240.98 444.55 C 239.42 444.44 237.86 444.35 236.31 444.24 C 237.15 442.28 238.05 440.35 238.82 438.38 Z" fill="#fefefe" opacity="1.00" stroke="#fefefe" stroke-width="0.25"/>
<path d="M 201.19 444.47 C 202.00 442.95 201.65 440.09 203.89 440.02 C 204.83 441.37 205.36 442.94 205.94 444.47 C 204.36 444.48 202.77 444.47 201.19 444.47 Z" fill="#fefefe" opacity="1.00" stroke="#fefefe" stroke-width="0.25"/>
</svg>