<svg xmlns="http://www.w3.org/2000/svg" xmlns:v="https://svgstorm.com"
viewBox = "0 0 1000 1000"
width="1000"
height="1000">
<g fill="None" fill-opacity="0.0" stroke="#FEFEFE" stroke-opacity="1.00" stroke-width="0.3"><path d="
M 0.00 1000.00 
L 1000.00 1000.00
L 1000.00 0.00
L 0.00 0.00
L 0.00 1000.00
M 433.00 334.00 
C 390.43 333.19 325.20 325.83 340.00 267.00
C 354.68 279.97 370.85 289.45 387.70 299.31 C 404.54 309.16 433.97 309.20 433.00 334.00
M 440.00 276.00 
C 464.47 316.07 516.33 319.09 548.00 351.00
C 535.74 367.73 517.93 339.93 499.31 334.69 C 480.68 329.46 458.12 315.67 438.00 313.00
C 437.80 300.63 435.37 287.25 440.00 276.00
M 557.00 398.00 
C 557.79 396.68 559.71 394.40 560.00 393.00
C 560.84 382.46 554.53 374.57 547.00 368.00
C 561.49 347.55 584.85 334.42 609.00 331.00
C 614.06 329.97 619.99 329.78 625.00 331.00
C 632.07 332.73 639.27 335.55 646.00 339.00
C 640.55 344.61 632.42 347.81 628.00 355.00
C 598.10 322.57 568.00 396.90 608.00 400.00
C 578.60 462.16 498.82 495.64 434.00 476.00
C 456.95 468.59 479.05 457.21 497.00 440.00
C 497.23 439.84 497.00 439.00 497.00 439.00
C 502.58 427.59 515.75 420.04 522.00 409.00
C 530.80 410.40 539.74 411.39 549.00 411.00
C 549.50 411.00 550.00 411.00 550.00 411.00
C 551.48 408.90 556.70 404.45 553.00 403.00
C 505.23 416.33 448.88 364.53 439.00 322.00
C 482.67 336.01 537.11 350.71 557.00 398.00
M 438.00 343.00 
C 455.07 371.31 416.37 360.54 393.00 366.00 C 369.63 371.46 349.27 349.56 349.00 325.00
C 377.17 335.97 406.78 343.04 438.00 343.00
M 635.00 416.00 
C 653.24 394.96 614.55 390.34 627.77 368.77 C 640.99 347.20 657.54 342.93 661.00 368.00 C 664.46 393.08 654.54 405.65 635.00 416.00
M 616.00 360.00 
C 623.09 363.67 612.49 372.23 607.00 368.00 C 601.51 363.77 610.55 357.18 616.00 360.00
M 464.00 381.00 
C 433.85 397.18 388.22 417.48 372.00 373.00
C 403.11 385.37 444.74 349.96 464.00 381.00
M 487.00 395.00 
C 465.19 415.18 432.02 441.76 407.00 410.00
C 435.24 410.06 462.22 376.11 487.00 395.00
M 497.00 427.00 
C 496.60 427.64 496.37 428.39 496.00 429.00
C 490.23 438.48 485.39 441.42 476.00 438.00
C 474.80 437.80 473.74 437.18 473.00 437.00
C 470.13 436.72 467.79 436.35 465.00 436.00
C 459.92 435.37 452.04 435.19 450.00 430.00
C 451.28 430.53 451.86 429.03 453.00 429.00
C 469.84 415.82 492.83 394.92 513.00 406.00
C 510.15 414.31 501.33 419.42 497.00 427.00
M 349.00 505.00 
C 328.77 494.88 343.13 491.77 358.00 493.00 C 372.87 494.23 386.90 491.62 401.00 489.00
C 415.44 486.31 428.48 477.62 443.00 487.00
C 426.45 517.87 377.65 522.53 349.00 505.00
M 518.00 483.00 
C 507.59 512.74 481.61 538.73 451.00 547.00
C 469.31 528.56 486.88 509.79 498.00 487.00
C 505.01 487.04 511.15 483.71 518.00 483.00
M 487.00 489.00 
C 462.81 535.41 414.08 573.76 360.00 572.00
C 382.46 559.80 403.52 548.54 422.75 529.75 C 441.99 510.96 454.51 480.12 487.00 489.00
M 391.00 523.00 
C 394.76 522.55 399.69 521.59 404.00 521.00
C 410.39 519.51 416.58 517.42 423.00 516.00
C 399.09 546.98 355.75 571.08 318.00 551.00
C 344.95 549.00 364.99 525.57 391.00 523.00
M 324.00 639.00 
C 344.28 642.29 354.24 670.04 334.75 660.25 C 315.26 650.45 300.45 652.79 290.23 670.23 C 280.01 687.67 303.61 714.09 319.67 705.67 C 335.73 697.25 357.96 694.03 340.77 711.77 C 323.58 729.51 305.37 720.08 289.75 711.25 C 274.14 702.41 269.87 677.60 277.98 661.98 C 286.08 646.35 305.65 636.02 324.00 639.00
M 582.00 655.00 
C 585.19 660.91 595.83 690.69 604.30 680.30 C 612.78 669.92 615.04 660.22 626.75 646.75 C 638.47 633.29 636.77 664.34 637.00 679.00 C 637.23 693.66 635.73 730.08 631.00 707.00 C 626.27 683.92 635.38 673.03 630.00 652.00
C 620.44 664.11 616.15 677.51 606.68 689.68 C 597.21 701.85 585.87 670.51 580.00 664.00
C 578.16 661.76 574.02 660.38 574.00 657.00
C 569.70 676.11 577.63 702.36 570.00 719.00
C 566.55 719.73 566.19 718.30 565.00 716.00
C 556.15 698.87 567.83 681.65 564.00 661.00 C 560.17 640.35 570.81 634.26 582.00 655.00
M 730.00 687.00 
C 730.11 687.21 731.00 687.00 731.00 687.00
C 736.47 689.48 738.61 698.27 743.00 702.00
C 746.65 682.72 740.68 657.61 746.00 640.00
C 753.03 635.37 752.96 676.47 752.00 684.00 C 751.04 691.53 756.48 732.15 741.75 712.25 C 727.01 692.35 711.82 672.85 697.00 653.00
C 690.00 668.73 702.89 695.42 696.00 711.00 C 689.11 726.58 690.97 687.90 690.00 672.00 C 689.03 656.10 691.28 630.61 704.30 652.70 C 717.32 674.79 718.85 667.12 730.00 687.00
M 886.00 639.00 
C 905.92 641.85 909.77 666.20 893.75 648.25 C 877.73 630.30 852.92 657.15 864.77 669.23 C 876.62 681.31 899.93 672.05 905.98 691.03 C 912.02 710.00 891.86 724.74 872.00 719.00 C 852.14 713.26 851.20 693.30 866.08 709.92 C 880.97 726.53 907.45 706.82 900.08 691.92 C 892.70 677.03 867.50 687.49 858.70 670.30 C 849.89 653.11 866.17 636.17 886.00 639.00
M 135.00 677.00 
C 149.10 662.19 141.36 661.22 157.75 644.75 C 174.15 628.28 176.78 660.94 175.00 674.00 C 173.22 687.06 179.21 725.23 163.00 718.00 C 146.79 710.77 171.83 675.06 160.00 665.00
C 151.03 671.62 147.29 695.00 135.00 695.00 C 122.70 695.00 118.57 671.83 110.00 665.00
C 105.77 681.74 112.20 689.39 109.00 708.00 C 105.80 726.61 92.10 714.60 95.00 697.00 C 97.90 679.40 95.71 670.93 95.00 653.00 C 94.29 635.07 109.87 638.10 116.75 650.25 C 123.63 662.39 128.29 665.93 135.00 677.00
M 249.00 698.00 
C 234.67 698.00 220.33 698.00 206.00 698.00
C 207.93 732.25 188.59 713.29 192.00 693.00 C 195.41 672.71 202.89 668.77 209.77 651.77 C 216.65 634.77 238.27 634.11 245.77 651.23 C 253.27 668.35 259.07 672.77 263.00 693.00 C 266.93 713.23 246.69 732.30 249.00 698.00
M 433.00 684.00 
C 434.57 688.54 436.89 715.58 432.00 718.00
C 417.80 725.02 417.43 706.91 419.00 698.00
C 405.00 698.00 391.00 698.00 377.00 698.00
C 377.74 708.59 379.28 722.83 364.00 718.00
C 359.13 715.59 361.49 689.37 363.00 685.00
C 368.51 669.09 379.58 641.25 397.00 640.00 C 414.42 638.75 427.64 668.55 433.00 684.00
M 527.00 716.00 
C 524.35 721.13 507.73 720.85 505.00 716.00
C 499.04 705.42 500.47 689.92 493.00 680.00
C 487.65 692.22 486.01 708.12 478.00 718.00
C 474.49 719.74 465.41 719.98 462.00 718.00
C 445.74 708.55 459.07 684.18 446.07 668.93 C 433.08 653.67 447.72 626.79 456.33 651.67 C 464.94 676.55 462.14 679.87 471.00 702.00
C 471.20 683.26 487.54 678.46 484.98 657.98 C 482.41 637.49 497.56 636.36 501.93 657.07 C 506.29 677.79 511.34 682.51 515.00 702.00
C 525.24 683.00 522.17 676.61 530.32 653.32 C 538.47 630.04 552.62 646.91 541.68 666.68 C 530.74 686.45 535.82 696.90 527.00 716.00
M 665.00 640.00 
C 671.49 642.82 665.45 675.22 667.00 681.00 C 668.55 686.78 668.56 720.98 662.32 718.66 C 656.08 716.34 661.45 683.95 660.00 678.00 C 658.55 672.05 658.76 637.28 665.00 640.00
M 809.00 718.00 
C 791.92 721.78 765.96 720.89 773.00 699.00 C 780.04 677.11 763.79 661.51 774.00 643.00
C 779.73 632.60 813.89 640.14 824.25 646.75 C 834.60 653.37 845.46 674.26 840.00 689.00 C 834.54 703.74 824.95 714.47 809.00 718.00 Z"/>
</g>
<g fill="None" fill-opacity="0.0" stroke="#3A8BB7" stroke-opacity="1.00" stroke-width="0.3"><path d="
M 433.00 334.00 
C 433.97 309.20 404.54 309.16 387.70 299.31 C 370.85 289.45 354.68 279.97 340.00 267.00
C 325.20 325.83 390.43 333.19 433.00 334.00 Z"/>
</g>
<g fill="None" fill-opacity="0.0" stroke="#213B51" stroke-opacity="1.00" stroke-width="0.3"><path d="
M 440.00 276.00 
C 435.37 287.25 437.80 300.63 438.00 313.00
C 458.12 315.67 480.68 329.46 499.31 334.69 C 517.93 339.93 535.74 367.73 548.00 351.00
C 516.33 319.09 464.47 316.07 440.00 276.00 Z"/>
</g>
<g fill="None" fill-opacity="0.0" stroke="#388AB6" stroke-opacity="1.00" stroke-width="0.3"><path d="
M 553.00 403.00 
C 555.88 402.20 555.84 399.94 557.00 398.00
C 537.11 350.71 482.67 336.01 439.00 322.00
C 448.88 364.53 505.23 416.33 553.00 403.00 Z"/>
</g>
<g fill="None" fill-opacity="0.0" stroke="#368239" stroke-opacity="1.00" stroke-width="0.3"><path d="
M 438.00 343.00 
C 406.78 343.04 377.17 335.97 349.00 325.00
C 349.27 349.56 369.63 371.46 393.00 366.00 C 416.37 360.54 455.07 371.31 438.00 343.00 Z"/>
</g>
<g fill="None" fill-opacity="0.0" stroke="#D2F2FD" stroke-opacity="1.00" stroke-width="0.3"><path d="
M 609.00 331.00 
C 613.96 330.56 620.06 330.40 625.00 331.00
C 619.99 329.78 614.06 329.97 609.00 331.00 Z"/>
</g>
<g fill="None" fill-opacity="0.0" stroke="#388AB7" stroke-opacity="1.00" stroke-width="0.3"><path d="
M 560.00 393.00 
C 559.57 398.40 556.60 408.46 551.00 411.00
C 541.42 427.92 515.97 441.72 497.00 440.00
C 479.05 457.21 456.95 468.59 434.00 476.00
C 498.82 495.64 578.60 462.16 608.00 400.00
C 568.00 396.90 598.10 322.57 628.00 355.00
C 632.42 347.81 640.55 344.61 646.00 339.00
C 639.27 335.55 632.07 332.73 625.00 331.00
C 620.06 330.40 613.96 330.56 609.00 331.00
C 584.85 334.42 561.49 347.55 547.00 368.00
C 554.53 374.57 560.84 382.46 560.00 393.00 Z"/>
</g>
<g fill="None" fill-opacity="0.0" stroke="#1F3A4F" stroke-opacity="1.00" stroke-width="0.3"><path d="
M 635.00 416.00 
C 654.54 405.65 664.46 393.08 661.00 368.00 C 657.54 342.93 640.99 347.20 627.77 368.77 C 614.55 390.34 653.24 394.96 635.00 416.00 Z"/>
</g>
<g fill="None" fill-opacity="0.0" stroke="#233A4F" stroke-opacity="1.00" stroke-width="0.3"><path d="
M 616.00 360.00 
C 610.55 357.18 601.51 363.77 607.00 368.00 C 612.49 372.23 623.09 363.67 616.00 360.00 Z"/>
</g>
<g fill="None" fill-opacity="0.0" stroke="#39823B" stroke-opacity="1.00" stroke-width="0.3"><path d="
M 464.00 381.00 
C 444.74 349.96 403.11 385.37 372.00 373.00
C 388.22 417.48 433.85 397.18 464.00 381.00 Z"/>
</g>
<g fill="None" fill-opacity="0.0" stroke="#968431" stroke-opacity="1.00" stroke-width="0.3"><path d="
M 487.00 395.00 
C 462.22 376.11 435.24 410.06 407.00 410.00
C 432.02 441.76 465.19 415.18 487.00 395.00 Z"/>
</g>
<g fill="None" fill-opacity="0.0" stroke="#AED5E7" stroke-opacity="1.00" stroke-width="0.3"><path d="
M 557.00 398.00 
C 555.84 399.94 555.88 402.20 553.00 403.00
C 556.70 404.45 551.48 408.90 550.00 411.00
C 550.50 411.00 551.00 411.00 551.00 411.00
C 556.60 408.46 559.57 398.40 560.00 393.00
C 559.71 394.40 557.79 396.68 557.00 398.00 Z"/>
</g>
<g fill="None" fill-opacity="0.0" stroke="#978431" stroke-opacity="1.00" stroke-width="0.3"><path d="
M 453.00 429.00 
C 452.25 429.86 451.51 431.02 451.00 432.00
C 455.61 433.23 461.03 433.76 465.00 436.00
C 467.79 436.35 470.13 436.72 473.00 437.00
C 484.38 438.10 489.27 435.87 497.00 427.00
C 501.33 419.42 510.15 414.31 513.00 406.00
C 492.83 394.92 469.84 415.82 453.00 429.00 Z"/>
</g>
<g fill="None" fill-opacity="0.0" stroke="#968332" stroke-opacity="1.00" stroke-width="0.3"><path d="
M 497.00 439.00 
C 514.52 439.38 540.17 427.54 549.00 411.00
C 539.74 411.39 530.80 410.40 522.00 409.00
C 515.75 420.04 502.58 427.59 497.00 439.00 Z"/>
</g>
<g fill="None" fill-opacity="0.0" stroke="#658676" stroke-opacity="1.00" stroke-width="0.3"><path d="
M 497.00 439.00 
C 497.00 439.00 497.23 439.84 497.00 440.00
C 515.97 441.72 541.42 427.92 551.00 411.00
C 551.00 411.00 550.50 411.00 550.00 411.00
C 550.00 411.00 549.50 411.00 549.00 411.00
C 540.17 427.54 514.52 439.38 497.00 439.00 Z"/>
</g>
<g fill="None" fill-opacity="0.0" stroke="#B6AC7C" stroke-opacity="1.00" stroke-width="0.3"><path d="
M 473.00 437.00 
C 473.74 437.18 474.80 437.80 476.00 438.00
C 485.46 439.60 489.53 435.94 496.00 429.00
C 496.37 428.39 496.60 427.64 497.00 427.00
C 489.27 435.87 484.38 438.10 473.00 437.00 Z"/>
</g>
<g fill="None" fill-opacity="0.0" stroke="#CAC29A" stroke-opacity="1.00" stroke-width="0.3"><path d="
M 465.00 436.00 
C 461.03 433.76 455.61 433.23 451.00 432.00
C 451.51 431.02 452.25 429.86 453.00 429.00
C 451.86 429.03 451.28 430.53 450.00 430.00
C 452.04 435.19 459.92 435.37 465.00 436.00 Z"/>
</g>
<g fill="None" fill-opacity="0.0" stroke="#EFE9D0" stroke-opacity="1.00" stroke-width="0.3"><path d="
M 476.00 438.00 
C 485.39 441.42 490.23 438.48 496.00 429.00
C 489.53 435.94 485.46 439.60 476.00 438.00 Z"/>
</g>
<g fill="None" fill-opacity="0.0" stroke="#3A813A" stroke-opacity="1.00" stroke-width="0.3"><path d="
M 401.00 489.00 
C 381.71 494.86 359.93 496.14 339.00 494.00
C 340.28 498.87 346.11 501.44 349.00 505.00
C 377.65 522.53 426.45 517.87 443.00 487.00
C 428.48 477.62 415.44 486.31 401.00 489.00 Z"/>
</g>
<g fill="None" fill-opacity="0.0" stroke="#223B50" stroke-opacity="1.00" stroke-width="0.3"><path d="
M 518.00 483.00 
C 511.15 483.71 505.01 487.04 498.00 487.00
C 486.88 509.79 469.31 528.56 451.00 547.00
C 481.61 538.73 507.59 512.74 518.00 483.00 Z"/>
</g>
<g fill="None" fill-opacity="0.0" stroke="#D1EAD2" stroke-opacity="1.00" stroke-width="0.3"><path d="
M 349.00 505.00 
C 346.11 501.44 340.28 498.87 339.00 494.00
C 359.93 496.14 381.71 494.86 401.00 489.00
C 386.90 491.62 372.87 494.23 358.00 493.00 C 343.13 491.77 328.77 494.88 349.00 505.00 Z"/>
</g>
<g fill="None" fill-opacity="0.0" stroke="#978532" stroke-opacity="1.00" stroke-width="0.3"><path d="
M 487.00 489.00 
C 454.51 480.12 441.99 510.96 422.75 529.75 C 403.52 548.54 382.46 559.80 360.00 572.00
C 414.08 573.76 462.81 535.41 487.00 489.00 Z"/>
</g>
<g fill="None" fill-opacity="0.0" stroke="#968432" stroke-opacity="1.00" stroke-width="0.3"><path d="
M 404.00 521.00 
C 400.01 521.93 395.60 522.82 391.00 523.00
C 364.99 525.57 344.95 549.00 318.00 551.00
C 355.75 571.08 399.09 546.98 423.00 516.00
C 416.58 517.42 410.39 519.51 404.00 521.00 Z"/>
</g>
<g fill="None" fill-opacity="0.0" stroke="#C5BF90" stroke-opacity="1.00" stroke-width="0.3"><path d="
M 391.00 523.00 
C 395.60 522.82 400.01 521.93 404.00 521.00
C 399.69 521.59 394.76 522.55 391.00 523.00 Z"/>
</g>
<g fill="None" fill-opacity="0.0" stroke="#203A4F" stroke-opacity="1.00" stroke-width="0.3"><path d="
M 324.00 639.00 
C 305.65 636.02 286.08 646.35 277.98 661.98 C 269.87 677.60 274.14 702.41 289.75 711.25 C 305.37 720.08 323.58 729.51 340.77 711.77 C 357.96 694.03 335.73 697.25 319.67 705.67 C 303.61 714.09 280.01 687.67 290.23 670.23 C 300.45 652.79 315.26 650.45 334.75 660.25 C 354.24 670.04 344.28 642.29 324.00 639.00 Z"/>
</g>
<g fill="None" fill-opacity="0.0" stroke="#DEF4FA" stroke-opacity="1.00" stroke-width="0.3"><path d="
M 565.00 716.00 
C 562.28 707.95 565.03 684.61 565.00 677.00 C 564.97 669.39 561.40 642.27 567.00 640.00
C 572.33 637.84 579.64 651.77 582.00 655.00
C 570.81 634.26 560.17 640.35 564.00 661.00 C 567.83 681.65 556.15 698.87 565.00 716.00 Z"/>
</g>
<g fill="None" fill-opacity="0.0" stroke="#488DB7" stroke-opacity="1.00" stroke-width="0.3"><path d="
M 746.00 640.00 
C 734.25 651.75 752.73 690.48 745.00 705.00
C 743.80 704.33 742.42 703.36 742.00 702.00
C 737.41 697.80 733.29 692.31 730.00 687.00
C 718.85 667.12 717.32 674.79 704.30 652.70 C 691.28 630.61 689.03 656.10 690.00 672.00 C 690.97 687.90 689.11 726.58 696.00 711.00 C 702.89 695.42 690.00 668.73 697.00 653.00
C 711.82 672.85 727.01 692.35 741.75 712.25 C 756.48 732.15 751.04 691.53 752.00 684.00 C 752.96 676.47 753.03 635.37 746.00 640.00 Z"/>
</g>
<g fill="None" fill-opacity="0.0" stroke="#458AB5" stroke-opacity="1.00" stroke-width="0.3"><path d="
M 886.00 639.00 
C 866.17 636.17 849.89 653.11 858.70 670.30 C 867.50 687.49 892.70 677.03 900.08 691.92 C 907.45 706.82 880.97 726.53 866.08 709.92 C 851.20 693.30 852.14 713.26 872.00 719.00 C 891.86 724.74 912.02 710.00 905.98 691.03 C 899.93 672.05 876.62 681.31 864.77 669.23 C 852.92 657.15 877.73 630.30 893.75 648.25 C 909.77 666.20 905.92 641.85 886.00 639.00 Z"/>
</g>
<g fill="None" fill-opacity="0.0" stroke="#203A4F" stroke-opacity="1.00" stroke-width="0.3"><path d="
M 135.00 677.00 
C 128.29 665.93 123.63 662.39 116.75 650.25 C 109.87 638.10 94.29 635.07 95.00 653.00 C 95.71 670.93 97.90 679.40 95.00 697.00 C 92.10 714.60 105.80 726.61 109.00 708.00 C 112.20 689.39 105.77 681.74 110.00 665.00
C 118.57 671.83 122.70 695.00 135.00 695.00 C 147.29 695.00 151.03 671.62 160.00 665.00
C 171.83 675.06 146.79 710.77 163.00 718.00 C 179.21 725.23 173.22 687.06 175.00 674.00 C 176.78 660.94 174.15 628.28 157.75 644.75 C 141.36 661.22 149.10 662.19 135.00 677.00 Z"/>
</g>
<g fill="None" fill-opacity="0.0" stroke="#203A4E" stroke-opacity="1.00" stroke-width="0.3"><path d="
M 249.00 698.00 
C 246.69 732.30 266.93 713.23 263.00 693.00 C 259.07 672.77 253.27 668.35 245.77 651.23 C 238.27 634.11 216.65 634.77 209.77 651.77 C 202.89 668.77 195.41 672.71 192.00 693.00 C 188.59 713.29 207.93 732.25 206.00 698.00
C 220.33 698.00 234.67 698.00 249.00 698.00
M 246.00 684.00 
C 243.15 688.79 210.05 684.16 210.00 683.00
C 209.75 677.52 223.76 652.70 228.03 652.03 C 232.29 651.36 246.72 682.79 246.00 684.00 Z"/>
</g>
<g fill="None" fill-opacity="0.0" stroke="#213B51" stroke-opacity="1.00" stroke-width="0.3"><path d="
M 363.00 685.00 
C 362.11 689.38 360.60 715.59 364.00 718.00
C 379.28 722.83 377.74 708.59 377.00 698.00
C 391.00 698.00 405.00 698.00 419.00 698.00
C 417.43 706.91 417.80 725.02 432.00 718.00
C 435.48 715.54 433.91 688.47 433.00 684.00
C 427.64 668.55 414.42 638.75 397.00 640.00 C 379.58 641.25 368.51 669.09 363.00 685.00
M 416.00 684.00 
C 404.00 684.00 392.00 684.00 380.00 684.00
C 386.35 679.64 389.58 651.94 398.03 652.03 C 406.48 652.12 410.88 679.22 416.00 684.00 Z"/>
</g>
<g fill="None" fill-opacity="0.0" stroke="#203A50" stroke-opacity="1.00" stroke-width="0.3"><path d="
M 462.00 718.00 
C 464.80 719.09 475.12 718.92 478.00 718.00
C 486.01 708.12 487.65 692.22 493.00 680.00
C 500.47 689.92 499.04 705.42 505.00 716.00
C 507.70 719.53 524.40 719.68 527.00 716.00
C 535.82 696.90 530.74 686.45 541.68 666.68 C 552.62 646.91 538.47 630.04 530.32 653.32 C 522.17 676.61 525.24 683.00 515.00 702.00
C 511.34 682.51 506.29 677.79 501.93 657.07 C 497.56 636.36 482.41 637.49 484.98 657.98 C 487.54 678.46 471.20 683.26 471.00 702.00
C 462.14 679.87 464.94 676.55 456.33 651.67 C 447.72 626.79 433.08 653.67 446.07 668.93 C 459.07 684.18 445.74 708.55 462.00 718.00 Z"/>
</g>
<g fill="None" fill-opacity="0.0" stroke="#8EBBD6" stroke-opacity="1.00" stroke-width="0.3"><path d="
M 565.00 716.00 
C 566.19 718.30 566.55 719.73 570.00 719.00
C 575.77 716.64 570.73 690.93 572.00 686.00 C 573.27 681.07 570.61 653.66 574.00 655.00
C 573.11 654.22 572.78 652.37 571.00 653.00
C 570.59 675.56 571.54 677.36 571.00 702.00 C 570.46 726.64 563.74 707.65 566.00 689.00 C 568.26 670.35 563.48 657.60 567.00 640.00
C 561.40 642.27 564.97 669.39 565.00 677.00 C 565.03 684.61 562.28 707.95 565.00 716.00 Z"/>
</g>
<g fill="None" fill-opacity="0.0" stroke="#4089B4" stroke-opacity="1.00" stroke-width="0.3"><path d="
M 574.00 655.00 
C 576.37 657.07 578.38 661.32 580.00 664.00
C 585.87 670.51 597.21 701.85 606.68 689.68 C 616.15 677.51 620.44 664.11 630.00 652.00
C 635.38 673.03 626.27 683.92 631.00 707.00 C 635.73 730.08 637.23 693.66 637.00 679.00 C 636.77 664.34 638.47 633.29 626.75 646.75 C 615.04 660.22 612.78 669.92 604.30 680.30 C 595.83 690.69 585.19 660.91 582.00 655.00
C 579.64 651.77 572.33 637.84 567.00 640.00
C 563.48 657.60 568.26 670.35 566.00 689.00 C 563.74 707.65 570.46 726.64 571.00 702.00 C 571.54 677.36 570.59 675.56 571.00 653.00
C 572.78 652.37 573.11 654.22 574.00 655.00 Z"/>
</g>
<g fill="None" fill-opacity="0.0" stroke="#4C8FB8" stroke-opacity="1.00" stroke-width="0.3"><path d="
M 665.00 640.00 
C 658.76 637.28 658.55 672.05 660.00 678.00 C 661.45 683.95 656.08 716.34 662.32 718.66 C 668.56 720.98 668.55 686.78 667.00 681.00 C 665.45 675.22 671.49 642.82 665.00 640.00 Z"/>
</g>
<g fill="None" fill-opacity="0.0" stroke="#E5FBFE" stroke-opacity="1.00" stroke-width="0.3"><path d="
M 731.00 687.00 
C 735.03 691.62 738.05 697.33 742.00 702.00
C 742.42 703.36 743.80 704.33 745.00 705.00
C 752.73 690.48 734.25 651.75 746.00 640.00
C 740.68 657.61 746.65 682.72 743.00 702.00
C 738.61 698.27 736.47 689.48 731.00 687.00 Z"/>
</g>
<g fill="None" fill-opacity="0.0" stroke="#3F87B4" stroke-opacity="1.00" stroke-width="0.3"><path d="
M 774.00 643.00 
C 766.60 663.30 780.33 675.76 774.00 698.00 C 767.67 720.24 790.44 719.91 809.00 718.00
C 824.95 714.47 834.54 703.74 840.00 689.00 C 845.46 674.26 834.60 653.37 824.25 646.75 C 813.89 640.14 779.73 632.60 774.00 643.00
M 801.00 646.00 
C 803.64 646.05 806.01 646.59 808.00 647.00
C 841.62 653.96 843.54 709.10 807.00 712.00
C 798.45 713.65 788.27 712.85 779.00 713.00
C 784.89 690.37 762.50 634.77 801.00 646.00 Z"/>
</g>
<g fill="None" fill-opacity="0.0" stroke="#98C2DC" stroke-opacity="1.00" stroke-width="0.3"><path d="
M 809.00 718.00 
C 790.44 719.91 767.67 720.24 774.00 698.00 C 780.33 675.76 766.60 663.30 774.00 643.00
C 763.79 661.51 780.04 677.11 773.00 699.00 C 765.96 720.89 791.92 721.78 809.00 718.00 Z"/>
</g>
<g fill="None" fill-opacity="0.0" stroke="#7BACC9" stroke-opacity="1.00" stroke-width="0.3"><path d="
M 807.00 712.00 
C 801.35 712.45 786.99 714.41 782.00 712.00
C 775.45 708.83 781.90 688.15 780.00 680.00 C 778.10 671.85 781.43 654.94 780.00 646.00
C 787.00 646.00 794.00 646.00 801.00 646.00
C 762.50 634.77 784.89 690.37 779.00 713.00
C 788.27 712.85 798.45 713.65 807.00 712.00 Z"/>
</g>
<g fill="None" fill-opacity="0.0" stroke="#CFE8F7" stroke-opacity="1.00" stroke-width="0.3"><path d="
M 782.00 712.00 
C 775.76 707.59 783.48 687.73 781.00 680.00 C 778.52 672.27 782.86 655.55 781.00 647.00
C 790.00 647.00 799.00 647.00 808.00 647.00
C 806.01 646.59 803.64 646.05 801.00 646.00
C 794.00 646.00 787.00 646.00 780.00 646.00
C 781.43 654.94 778.10 671.85 780.00 680.00 C 781.90 688.15 775.45 708.83 782.00 712.00 Z"/>
</g>
<g fill="None" fill-opacity="0.0" stroke="#FBFDFD" stroke-opacity="1.00" stroke-width="0.3"><path d="
M 782.00 712.00 
C 786.99 714.41 801.35 712.45 807.00 712.00
C 843.54 709.10 841.62 653.96 808.00 647.00
C 799.00 647.00 790.00 647.00 781.00 647.00
C 782.86 655.55 778.52 672.27 781.00 680.00 C 783.48 687.73 775.76 707.59 782.00 712.00 Z"/>
</g>
<g fill="None" fill-opacity="0.0" stroke="#F2F5F6" stroke-opacity="1.00" stroke-width="0.3"><path d="
M 210.00 683.00 
C 214.06 689.63 239.43 680.11 246.00 684.00
C 246.72 682.79 232.29 651.36 228.03 652.03 C 223.76 652.70 209.75 677.52 210.00 683.00 Z"/>
</g>
<g fill="None" fill-opacity="0.0" stroke="#F3F6F8" stroke-opacity="1.00" stroke-width="0.3"><path d="
M 416.00 684.00 
C 410.88 679.22 406.48 652.12 398.03 652.03 C 389.58 651.94 386.35 679.64 380.00 684.00
C 392.00 684.00 404.00 684.00 416.00 684.00 Z"/>
</g>
<g fill="None" fill-opacity="0.0" stroke="#D6F0FB" stroke-opacity="1.00" stroke-width="0.3"><path d="
M 570.00 719.00 
C 577.63 702.36 569.70 676.11 574.00 657.00
C 574.02 660.38 578.16 661.76 580.00 664.00
C 578.38 661.32 576.37 657.07 574.00 655.00
C 570.61 653.66 573.27 681.07 572.00 686.00 C 570.73 690.93 575.77 716.64 570.00 719.00 Z"/>
</g>
<g fill="None" fill-opacity="0.0" stroke="#6D7E8C" stroke-opacity="1.00" stroke-width="0.3"><path d="
M 246.00 684.00 
C 239.43 680.11 214.06 689.63 210.00 683.00
C 210.05 684.16 243.15 688.79 246.00 684.00 Z"/>
</g>
<g fill="None" fill-opacity="0.0" stroke="#748491" stroke-opacity="1.00" stroke-width="0.3"><path d="
M 432.00 718.00 
C 436.89 715.58 434.57 688.54 433.00 684.00
C 433.91 688.47 435.48 715.54 432.00 718.00 Z"/>
</g>
<g fill="None" fill-opacity="0.0" stroke="#8B98A3" stroke-opacity="1.00" stroke-width="0.3"><path d="
M 364.00 718.00 
C 360.60 715.59 362.11 689.38 363.00 685.00
C 361.49 689.37 359.13 715.59 364.00 718.00 Z"/>
</g>
<g fill="None" fill-opacity="0.0" stroke="#8CB7D2" stroke-opacity="1.00" stroke-width="0.3"><path d="
M 742.00 702.00 
C 738.05 697.33 735.03 691.62 731.00 687.00
C 731.00 687.00 730.11 687.21 730.00 687.00
C 733.29 692.31 737.41 697.80 742.00 702.00 Z"/>
</g>
<g fill="None" fill-opacity="0.0" stroke="#99A9B8" stroke-opacity="1.00" stroke-width="0.3"><path d="
M 527.00 716.00 
C 524.40 719.68 507.70 719.53 505.00 716.00
C 507.73 720.85 524.35 721.13 527.00 716.00 Z"/>
</g>
<g fill="None" fill-opacity="0.0" stroke="#8595A4" stroke-opacity="1.00" stroke-width="0.3"><path d="
M 478.00 718.00 
C 475.12 718.92 464.80 719.09 462.00 718.00
C 465.41 719.98 474.49 719.74 478.00 718.00 Z"/>
</g>
<g fill="#FEFEFE" fill-opacity="1.00" stroke="None">
<path d="
M 0.00 1000.00 
L 1000.00 1000.00
L 1000.00 0.00
L 0.00 0.00
L 0.00 1000.00
M 433.00 334.00 
C 390.43 333.19 325.20 325.83 340.00 267.00
C 354.68 279.97 370.85 289.45 387.70 299.31 C 404.54 309.16 433.97 309.20 433.00 334.00
M 440.00 276.00 
C 464.47 316.07 516.33 319.09 548.00 351.00
C 535.74 367.73 517.93 339.93 499.31 334.69 C 480.68 329.46 458.12 315.67 438.00 313.00
C 437.80 300.63 435.37 287.25 440.00 276.00
M 557.00 398.00 
C 557.79 396.68 559.71 394.40 560.00 393.00
C 560.84 382.46 554.53 374.57 547.00 368.00
C 561.49 347.55 584.85 334.42 609.00 331.00
C 614.06 329.97 619.99 329.78 625.00 331.00
C 632.07 332.73 639.27 335.55 646.00 339.00
C 640.55 344.61 632.42 347.81 628.00 355.00
C 598.10 322.57 568.00 396.90 608.00 400.00
C 578.60 462.16 498.82 495.64 434.00 476.00
C 456.95 468.59 479.05 457.21 497.00 440.00
C 497.23 439.84 497.00 439.00 497.00 439.00
C 502.58 427.59 515.75 420.04 522.00 409.00
C 530.80 410.40 539.74 411.39 549.00 411.00
C 549.50 411.00 550.00 411.00 550.00 411.00
C 551.48 408.90 556.70 404.45 553.00 403.00
C 505.23 416.33 448.88 364.53 439.00 322.00
C 482.67 336.01 537.11 350.71 557.00 398.00
M 438.00 343.00 
C 455.07 371.31 416.37 360.54 393.00 366.00 C 369.63 371.46 349.27 349.56 349.00 325.00
C 377.17 335.97 406.78 343.04 438.00 343.00
M 635.00 416.00 
C 653.24 394.96 614.55 390.34 627.77 368.77 C 640.99 347.20 657.54 342.93 661.00 368.00 C 664.46 393.08 654.54 405.65 635.00 416.00
M 616.00 360.00 
C 623.09 363.67 612.49 372.23 607.00 368.00 C 601.51 363.77 610.55 357.18 616.00 360.00
M 464.00 381.00 
C 433.85 397.18 388.22 417.48 372.00 373.00
C 403.11 385.37 444.74 349.96 464.00 381.00
M 487.00 395.00 
C 465.19 415.18 432.02 441.76 407.00 410.00
C 435.24 410.06 462.22 376.11 487.00 395.00
M 497.00 427.00 
C 496.60 427.64 496.37 428.39 496.00 429.00
C 490.23 438.48 485.39 441.42 476.00 438.00
C 474.80 437.80 473.74 437.18 473.00 437.00
C 470.13 436.72 467.79 436.35 465.00 436.00
C 459.92 435.37 452.04 435.19 450.00 430.00
C 451.28 430.53 451.86 429.03 453.00 429.00
C 469.84 415.82 492.83 394.92 513.00 406.00
C 510.15 414.31 501.33 419.42 497.00 427.00
M 349.00 505.00 
C 328.77 494.88 343.13 491.77 358.00 493.00 C 372.87 494.23 386.90 491.62 401.00 489.00
C 415.44 486.31 428.48 477.62 443.00 487.00
C 426.45 517.87 377.65 522.53 349.00 505.00
M 518.00 483.00 
C 507.59 512.74 481.61 538.73 451.00 547.00
C 469.31 528.56 486.88 509.79 498.00 487.00
C 505.01 487.04 511.15 483.71 518.00 483.00
M 487.00 489.00 
C 462.81 535.41 414.08 573.76 360.00 572.00
C 382.46 559.80 403.52 548.54 422.75 529.75 C 441.99 510.96 454.51 480.12 487.00 489.00
M 391.00 523.00 
C 394.76 522.55 399.69 521.59 404.00 521.00
C 410.39 519.51 416.58 517.42 423.00 516.00
C 399.09 546.98 355.75 571.08 318.00 551.00
C 344.95 549.00 364.99 525.57 391.00 523.00
M 324.00 639.00 
C 344.28 642.29 354.24 670.04 334.75 660.25 C 315.26 650.45 300.45 652.79 290.23 670.23 C 280.01 687.67 303.61 714.09 319.67 705.67 C 335.73 697.25 357.96 694.03 340.77 711.77 C 323.58 729.51 305.37 720.08 289.75 711.25 C 274.14 702.41 269.87 677.60 277.98 661.98 C 286.08 646.35 305.65 636.02 324.00 639.00
M 582.00 655.00 
C 585.19 660.91 595.83 690.69 604.30 680.30 C 612.78 669.92 615.04 660.22 626.75 646.75 C 638.47 633.29 636.77 664.34 637.00 679.00 C 637.23 693.66 635.73 730.08 631.00 707.00 C 626.27 683.92 635.38 673.03 630.00 652.00
C 620.44 664.11 616.15 677.51 606.68 689.68 C 597.21 701.85 585.87 670.51 580.00 664.00
C 578.16 661.76 574.02 660.38 574.00 657.00
C 569.70 676.11 577.63 702.36 570.00 719.00
C 566.55 719.73 566.19 718.30 565.00 716.00
C 556.15 698.87 567.83 681.65 564.00 661.00 C 560.17 640.35 570.81 634.26 582.00 655.00
M 730.00 687.00 
C 730.11 687.21 731.00 687.00 731.00 687.00
C 736.47 689.48 738.61 698.27 743.00 702.00
C 746.65 682.72 740.68 657.61 746.00 640.00
C 753.03 635.37 752.96 676.47 752.00 684.00 C 751.04 691.53 756.48 732.15 741.75 712.25 C 727.01 692.35 711.82 672.85 697.00 653.00
C 690.00 668.73 702.89 695.42 696.00 711.00 C 689.11 726.58 690.97 687.90 690.00 672.00 C 689.03 656.10 691.28 630.61 704.30 652.70 C 717.32 674.79 718.85 667.12 730.00 687.00
M 886.00 639.00 
C 905.92 641.85 909.77 666.20 893.75 648.25 C 877.73 630.30 852.92 657.15 864.77 669.23 C 876.62 681.31 899.93 672.05 905.98 691.03 C 912.02 710.00 891.86 724.74 872.00 719.00 C 852.14 713.26 851.20 693.30 866.08 709.92 C 880.97 726.53 907.45 706.82 900.08 691.92 C 892.70 677.03 867.50 687.49 858.70 670.30 C 849.89 653.11 866.17 636.17 886.00 639.00
M 135.00 677.00 
C 149.10 662.19 141.36 661.22 157.75 644.75 C 174.15 628.28 176.78 660.94 175.00 674.00 C 173.22 687.06 179.21 725.23 163.00 718.00 C 146.79 710.77 171.83 675.06 160.00 665.00
C 151.03 671.62 147.29 695.00 135.00 695.00 C 122.70 695.00 118.57 671.83 110.00 665.00
C 105.77 681.74 112.20 689.39 109.00 708.00 C 105.80 726.61 92.10 714.60 95.00 697.00 C 97.90 679.40 95.71 670.93 95.00 653.00 C 94.29 635.07 109.87 638.10 116.75 650.25 C 123.63 662.39 128.29 665.93 135.00 677.00
M 249.00 698.00 
C 234.67 698.00 220.33 698.00 206.00 698.00
C 207.93 732.25 188.59 713.29 192.00 693.00 C 195.41 672.71 202.89 668.77 209.77 651.77 C 216.65 634.77 238.27 634.11 245.77 651.23 C 253.27 668.35 259.07 672.77 263.00 693.00 C 266.93 713.23 246.69 732.30 249.00 698.00
M 433.00 684.00 
C 434.57 688.54 436.89 715.58 432.00 718.00
C 417.80 725.02 417.43 706.91 419.00 698.00
C 405.00 698.00 391.00 698.00 377.00 698.00
C 377.74 708.59 379.28 722.83 364.00 718.00
C 359.13 715.59 361.49 689.37 363.00 685.00
C 368.51 669.09 379.58 641.25 397.00 640.00 C 414.42 638.75 427.64 668.55 433.00 684.00
M 527.00 716.00 
C 524.35 721.13 507.73 720.85 505.00 716.00
C 499.04 705.42 500.47 689.92 493.00 680.00
C 487.65 692.22 486.01 708.12 478.00 718.00
C 474.49 719.74 465.41 719.98 462.00 718.00
C 445.74 708.55 459.07 684.18 446.07 668.93 C 433.08 653.67 447.72 626.79 456.33 651.67 C 464.94 676.55 462.14 679.87 471.00 702.00
C 471.20 683.26 487.54 678.46 484.98 657.98 C 482.41 637.49 497.56 636.36 501.93 657.07 C 506.29 677.79 511.34 682.51 515.00 702.00
C 525.24 683.00 522.17 676.61 530.32 653.32 C 538.47 630.04 552.62 646.91 541.68 666.68 C 530.74 686.45 535.82 696.90 527.00 716.00
M 665.00 640.00 
C 671.49 642.82 665.45 675.22 667.00 681.00 C 668.55 686.78 668.56 720.98 662.32 718.66 C 656.08 716.34 661.45 683.95 660.00 678.00 C 658.55 672.05 658.76 637.28 665.00 640.00
M 809.00 718.00 
C 791.92 721.78 765.96 720.89 773.00 699.00 C 780.04 677.11 763.79 661.51 774.00 643.00
C 779.73 632.60 813.89 640.14 824.25 646.75 C 834.60 653.37 845.46 674.26 840.00 689.00 C 834.54 703.74 824.95 714.47 809.00 718.00 Z"/>
</g>
<g fill="#3A8BB7" fill-opacity="1.00" stroke="None">
<path d="
M 433.00 334.00 
C 433.97 309.20 404.54 309.16 387.70 299.31 C 370.85 289.45 354.68 279.97 340.00 267.00
C 325.20 325.83 390.43 333.19 433.00 334.00 Z"/>
</g>
<g fill="#213B51" fill-opacity="1.00" stroke="None">
<path d="
M 440.00 276.00 
C 435.37 287.25 437.80 300.63 438.00 313.00
C 458.12 315.67 480.68 329.46 499.31 334.69 C 517.93 339.93 535.74 367.73 548.00 351.00
C 516.33 319.09 464.47 316.07 440.00 276.00 Z"/>
</g>
<g fill="#388AB6" fill-opacity="1.00" stroke="None">
<path d="
M 553.00 403.00 
C 555.88 402.20 555.84 399.94 557.00 398.00
C 537.11 350.71 482.67 336.01 439.00 322.00
C 448.88 364.53 505.23 416.33 553.00 403.00 Z"/>
</g>
<g fill="#368239" fill-opacity="1.00" stroke="None">
<path d="
M 438.00 343.00 
C 406.78 343.04 377.17 335.97 349.00 325.00
C 349.27 349.56 369.63 371.46 393.00 366.00 C 416.37 360.54 455.07 371.31 438.00 343.00 Z"/>
</g>
<g fill="#D2F2FD" fill-opacity="1.00" stroke="None">
<path d="
M 609.00 331.00 
C 613.96 330.56 620.06 330.40 625.00 331.00
C 619.99 329.78 614.06 329.97 609.00 331.00 Z"/>
</g>
<g fill="#388AB7" fill-opacity="1.00" stroke="None">
<path d="
M 560.00 393.00 
C 559.57 398.40 556.60 408.46 551.00 411.00
C 541.42 427.92 515.97 441.72 497.00 440.00
C 479.05 457.21 456.95 468.59 434.00 476.00
C 498.82 495.64 578.60 462.16 608.00 400.00
C 568.00 396.90 598.10 322.57 628.00 355.00
C 632.42 347.81 640.55 344.61 646.00 339.00
C 639.27 335.55 632.07 332.73 625.00 331.00
C 620.06 330.40 613.96 330.56 609.00 331.00
C 584.85 334.42 561.49 347.55 547.00 368.00
C 554.53 374.57 560.84 382.46 560.00 393.00 Z"/>
</g>
<g fill="#1F3A4F" fill-opacity="1.00" stroke="None">
<path d="
M 635.00 416.00 
C 654.54 405.65 664.46 393.08 661.00 368.00 C 657.54 342.93 640.99 347.20 627.77 368.77 C 614.55 390.34 653.24 394.96 635.00 416.00 Z"/>
</g>
<g fill="#233A4F" fill-opacity="1.00" stroke="None">
<path d="
M 616.00 360.00 
C 610.55 357.18 601.51 363.77 607.00 368.00 C 612.49 372.23 623.09 363.67 616.00 360.00 Z"/>
</g>
<g fill="#39823B" fill-opacity="1.00" stroke="None">
<path d="
M 464.00 381.00 
C 444.74 349.96 403.11 385.37 372.00 373.00
C 388.22 417.48 433.85 397.18 464.00 381.00 Z"/>
</g>
<g fill="#968431" fill-opacity="1.00" stroke="None">
<path d="
M 487.00 395.00 
C 462.22 376.11 435.24 410.06 407.00 410.00
C 432.02 441.76 465.19 415.18 487.00 395.00 Z"/>
</g>
<g fill="#AED5E7" fill-opacity="1.00" stroke="None">
<path d="
M 557.00 398.00 
C 555.84 399.94 555.88 402.20 553.00 403.00
C 556.70 404.45 551.48 408.90 550.00 411.00
C 550.50 411.00 551.00 411.00 551.00 411.00
C 556.60 408.46 559.57 398.40 560.00 393.00
C 559.71 394.40 557.79 396.68 557.00 398.00 Z"/>
</g>
<g fill="#978431" fill-opacity="1.00" stroke="None">
<path d="
M 453.00 429.00 
C 452.25 429.86 451.51 431.02 451.00 432.00
C 455.61 433.23 461.03 433.76 465.00 436.00
C 467.79 436.35 470.13 436.72 473.00 437.00
C 484.38 438.10 489.27 435.87 497.00 427.00
C 501.33 419.42 510.15 414.31 513.00 406.00
C 492.83 394.92 469.84 415.82 453.00 429.00 Z"/>
</g>
<g fill="#968332" fill-opacity="1.00" stroke="None">
<path d="
M 497.00 439.00 
C 514.52 439.38 540.17 427.54 549.00 411.00
C 539.74 411.39 530.80 410.40 522.00 409.00
C 515.75 420.04 502.58 427.59 497.00 439.00 Z"/>
</g>
<g fill="#658676" fill-opacity="1.00" stroke="None">
<path d="
M 497.00 439.00 
C 497.00 439.00 497.23 439.84 497.00 440.00
C 515.97 441.72 541.42 427.92 551.00 411.00
C 551.00 411.00 550.50 411.00 550.00 411.00
C 550.00 411.00 549.50 411.00 549.00 411.00
C 540.17 427.54 514.52 439.38 497.00 439.00 Z"/>
</g>
<g fill="#B6AC7C" fill-opacity="1.00" stroke="None">
<path d="
M 473.00 437.00 
C 473.74 437.18 474.80 437.80 476.00 438.00
C 485.46 439.60 489.53 435.94 496.00 429.00
C 496.37 428.39 496.60 427.64 497.00 427.00
C 489.27 435.87 484.38 438.10 473.00 437.00 Z"/>
</g>
<g fill="#CAC29A" fill-opacity="1.00" stroke="None">
<path d="
M 465.00 436.00 
C 461.03 433.76 455.61 433.23 451.00 432.00
C 451.51 431.02 452.25 429.86 453.00 429.00
C 451.86 429.03 451.28 430.53 450.00 430.00
C 452.04 435.19 459.92 435.37 465.00 436.00 Z"/>
</g>
<g fill="#EFE9D0" fill-opacity="1.00" stroke="None">
<path d="
M 476.00 438.00 
C 485.39 441.42 490.23 438.48 496.00 429.00
C 489.53 435.94 485.46 439.60 476.00 438.00 Z"/>
</g>
<g fill="#3A813A" fill-opacity="1.00" stroke="None">
<path d="
M 401.00 489.00 
C 381.71 494.86 359.93 496.14 339.00 494.00
C 340.28 498.87 346.11 501.44 349.00 505.00
C 377.65 522.53 426.45 517.87 443.00 487.00
C 428.48 477.62 415.44 486.31 401.00 489.00 Z"/>
</g>
<g fill="#223B50" fill-opacity="1.00" stroke="None">
<path d="
M 518.00 483.00 
C 511.15 483.71 505.01 487.04 498.00 487.00
C 486.88 509.79 469.31 528.56 451.00 547.00
C 481.61 538.73 507.59 512.74 518.00 483.00 Z"/>
</g>
<g fill="#D1EAD2" fill-opacity="1.00" stroke="None">
<path d="
M 349.00 505.00 
C 346.11 501.44 340.28 498.87 339.00 494.00
C 359.93 496.14 381.71 494.86 401.00 489.00
C 386.90 491.62 372.87 494.23 358.00 493.00 C 343.13 491.77 328.77 494.88 349.00 505.00 Z"/>
</g>
<g fill="#978532" fill-opacity="1.00" stroke="None">
<path d="
M 487.00 489.00 
C 454.51 480.12 441.99 510.96 422.75 529.75 C 403.52 548.54 382.46 559.80 360.00 572.00
C 414.08 573.76 462.81 535.41 487.00 489.00 Z"/>
</g>
<g fill="#968432" fill-opacity="1.00" stroke="None">
<path d="
M 404.00 521.00 
C 400.01 521.93 395.60 522.82 391.00 523.00
C 364.99 525.57 344.95 549.00 318.00 551.00
C 355.75 571.08 399.09 546.98 423.00 516.00
C 416.58 517.42 410.39 519.51 404.00 521.00 Z"/>
</g>
<g fill="#C5BF90" fill-opacity="1.00" stroke="None">
<path d="
M 391.00 523.00 
C 395.60 522.82 400.01 521.93 404.00 521.00
C 399.69 521.59 394.76 522.55 391.00 523.00 Z"/>
</g>
<g fill="#203A4F" fill-opacity="1.00" stroke="None">
<path d="
M 324.00 639.00 
C 305.65 636.02 286.08 646.35 277.98 661.98 C 269.87 677.60 274.14 702.41 289.75 711.25 C 305.37 720.08 323.58 729.51 340.77 711.77 C 357.96 694.03 335.73 697.25 319.67 705.67 C 303.61 714.09 280.01 687.67 290.23 670.23 C 300.45 652.79 315.26 650.45 334.75 660.25 C 354.24 670.04 344.28 642.29 324.00 639.00 Z"/>
</g>
<g fill="#DEF4FA" fill-opacity="1.00" stroke="None">
<path d="
M 565.00 716.00 
C 562.28 707.95 565.03 684.61 565.00 677.00 C 564.97 669.39 561.40 642.27 567.00 640.00
C 572.33 637.84 579.64 651.77 582.00 655.00
C 570.81 634.26 560.17 640.35 564.00 661.00 C 567.83 681.65 556.15 698.87 565.00 716.00 Z"/>
</g>
<g fill="#488DB7" fill-opacity="1.00" stroke="None">
<path d="
M 746.00 640.00 
C 734.25 651.75 752.73 690.48 745.00 705.00
C 743.80 704.33 742.42 703.36 742.00 702.00
C 737.41 697.80 733.29 692.31 730.00 687.00
C 718.85 667.12 717.32 674.79 704.30 652.70 C 691.28 630.61 689.03 656.10 690.00 672.00 C 690.97 687.90 689.11 726.58 696.00 711.00 C 702.89 695.42 690.00 668.73 697.00 653.00
C 711.82 672.85 727.01 692.35 741.75 712.25 C 756.48 732.15 751.04 691.53 752.00 684.00 C 752.96 676.47 753.03 635.37 746.00 640.00 Z"/>
</g>
<g fill="#458AB5" fill-opacity="1.00" stroke="None">
<path d="
M 886.00 639.00 
C 866.17 636.17 849.89 653.11 858.70 670.30 C 867.50 687.49 892.70 677.03 900.08 691.92 C 907.45 706.82 880.97 726.53 866.08 709.92 C 851.20 693.30 852.14 713.26 872.00 719.00 C 891.86 724.74 912.02 710.00 905.98 691.03 C 899.93 672.05 876.62 681.31 864.77 669.23 C 852.92 657.15 877.73 630.30 893.75 648.25 C 909.77 666.20 905.92 641.85 886.00 639.00 Z"/>
</g>
<g fill="#203A4F" fill-opacity="1.00" stroke="None">
<path d="
M 135.00 677.00 
C 128.29 665.93 123.63 662.39 116.75 650.25 C 109.87 638.10 94.29 635.07 95.00 653.00 C 95.71 670.93 97.90 679.40 95.00 697.00 C 92.10 714.60 105.80 726.61 109.00 708.00 C 112.20 689.39 105.77 681.74 110.00 665.00
C 118.57 671.83 122.70 695.00 135.00 695.00 C 147.29 695.00 151.03 671.62 160.00 665.00
C 171.83 675.06 146.79 710.77 163.00 718.00 C 179.21 725.23 173.22 687.06 175.00 674.00 C 176.78 660.94 174.15 628.28 157.75 644.75 C 141.36 661.22 149.10 662.19 135.00 677.00 Z"/>
</g>
<g fill="#203A4E" fill-opacity="1.00" stroke="None">
<path d="
M 249.00 698.00 
C 246.69 732.30 266.93 713.23 263.00 693.00 C 259.07 672.77 253.27 668.35 245.77 651.23 C 238.27 634.11 216.65 634.77 209.77 651.77 C 202.89 668.77 195.41 672.71 192.00 693.00 C 188.59 713.29 207.93 732.25 206.00 698.00
C 220.33 698.00 234.67 698.00 249.00 698.00
M 246.00 684.00 
C 243.15 688.79 210.05 684.16 210.00 683.00
C 209.75 677.52 223.76 652.70 228.03 652.03 C 232.29 651.36 246.72 682.79 246.00 684.00 Z"/>
</g>
<g fill="#213B51" fill-opacity="1.00" stroke="None">
<path d="
M 363.00 685.00 
C 362.11 689.38 360.60 715.59 364.00 718.00
C 379.28 722.83 377.74 708.59 377.00 698.00
C 391.00 698.00 405.00 698.00 419.00 698.00
C 417.43 706.91 417.80 725.02 432.00 718.00
C 435.48 715.54 433.91 688.47 433.00 684.00
C 427.64 668.55 414.42 638.75 397.00 640.00 C 379.58 641.25 368.51 669.09 363.00 685.00
M 416.00 684.00 
C 404.00 684.00 392.00 684.00 380.00 684.00
C 386.35 679.64 389.58 651.94 398.03 652.03 C 406.48 652.12 410.88 679.22 416.00 684.00 Z"/>
</g>
<g fill="#203A50" fill-opacity="1.00" stroke="None">
<path d="
M 462.00 718.00 
C 464.80 719.09 475.12 718.92 478.00 718.00
C 486.01 708.12 487.65 692.22 493.00 680.00
C 500.47 689.92 499.04 705.42 505.00 716.00
C 507.70 719.53 524.40 719.68 527.00 716.00
C 535.82 696.90 530.74 686.45 541.68 666.68 C 552.62 646.91 538.47 630.04 530.32 653.32 C 522.17 676.61 525.24 683.00 515.00 702.00
C 511.34 682.51 506.29 677.79 501.93 657.07 C 497.56 636.36 482.41 637.49 484.98 657.98 C 487.54 678.46 471.20 683.26 471.00 702.00
C 462.14 679.87 464.94 676.55 456.33 651.67 C 447.72 626.79 433.08 653.67 446.07 668.93 C 459.07 684.18 445.74 708.55 462.00 718.00 Z"/>
</g>
<g fill="#8EBBD6" fill-opacity="1.00" stroke="None">
<path d="
M 565.00 716.00 
C 566.19 718.30 566.55 719.73 570.00 719.00
C 575.77 716.64 570.73 690.93 572.00 686.00 C 573.27 681.07 570.61 653.66 574.00 655.00
C 573.11 654.22 572.78 652.37 571.00 653.00
C 570.59 675.56 571.54 677.36 571.00 702.00 C 570.46 726.64 563.74 707.65 566.00 689.00 C 568.26 670.35 563.48 657.60 567.00 640.00
C 561.40 642.27 564.97 669.39 565.00 677.00 C 565.03 684.61 562.28 707.95 565.00 716.00 Z"/>
</g>
<g fill="#4089B4" fill-opacity="1.00" stroke="None">
<path d="
M 574.00 655.00 
C 576.37 657.07 578.38 661.32 580.00 664.00
C 585.87 670.51 597.21 701.85 606.68 689.68 C 616.15 677.51 620.44 664.11 630.00 652.00
C 635.38 673.03 626.27 683.92 631.00 707.00 C 635.73 730.08 637.23 693.66 637.00 679.00 C 636.77 664.34 638.47 633.29 626.75 646.75 C 615.04 660.22 612.78 669.92 604.30 680.30 C 595.83 690.69 585.19 660.91 582.00 655.00
C 579.64 651.77 572.33 637.84 567.00 640.00
C 563.48 657.60 568.26 670.35 566.00 689.00 C 563.74 707.65 570.46 726.64 571.00 702.00 C 571.54 677.36 570.59 675.56 571.00 653.00
C 572.78 652.37 573.11 654.22 574.00 655.00 Z"/>
</g>
<g fill="#4C8FB8" fill-opacity="1.00" stroke="None">
<path d="
M 665.00 640.00 
C 658.76 637.28 658.55 672.05 660.00 678.00 C 661.45 683.95 656.08 716.34 662.32 718.66 C 668.56 720.98 668.55 686.78 667.00 681.00 C 665.45 675.22 671.49 642.82 665.00 640.00 Z"/>
</g>
<g fill="#E5FBFE" fill-opacity="1.00" stroke="None">
<path d="
M 731.00 687.00 
C 735.03 691.62 738.05 697.33 742.00 702.00
C 742.42 703.36 743.80 704.33 745.00 705.00
C 752.73 690.48 734.25 651.75 746.00 640.00
C 740.68 657.61 746.65 682.72 743.00 702.00
C 738.61 698.27 736.47 689.48 731.00 687.00 Z"/>
</g>
<g fill="#3F87B4" fill-opacity="1.00" stroke="None">
<path d="
M 774.00 643.00 
C 766.60 663.30 780.33 675.76 774.00 698.00 C 767.67 720.24 790.44 719.91 809.00 718.00
C 824.95 714.47 834.54 703.74 840.00 689.00 C 845.46 674.26 834.60 653.37 824.25 646.75 C 813.89 640.14 779.73 632.60 774.00 643.00
M 801.00 646.00 
C 803.64 646.05 806.01 646.59 808.00 647.00
C 841.62 653.96 843.54 709.10 807.00 712.00
C 798.45 713.65 788.27 712.85 779.00 713.00
C 784.89 690.37 762.50 634.77 801.00 646.00 Z"/>
</g>
<g fill="#98C2DC" fill-opacity="1.00" stroke="None">
<path d="
M 809.00 718.00 
C 790.44 719.91 767.67 720.24 774.00 698.00 C 780.33 675.76 766.60 663.30 774.00 643.00
C 763.79 661.51 780.04 677.11 773.00 699.00 C 765.96 720.89 791.92 721.78 809.00 718.00 Z"/>
</g>
<g fill="#7BACC9" fill-opacity="1.00" stroke="None">
<path d="
M 807.00 712.00 
C 801.35 712.45 786.99 714.41 782.00 712.00
C 775.45 708.83 781.90 688.15 780.00 680.00 C 778.10 671.85 781.43 654.94 780.00 646.00
C 787.00 646.00 794.00 646.00 801.00 646.00
C 762.50 634.77 784.89 690.37 779.00 713.00
C 788.27 712.85 798.45 713.65 807.00 712.00 Z"/>
</g>
<g fill="#CFE8F7" fill-opacity="1.00" stroke="None">
<path d="
M 782.00 712.00 
C 775.76 707.59 783.48 687.73 781.00 680.00 C 778.52 672.27 782.86 655.55 781.00 647.00
C 790.00 647.00 799.00 647.00 808.00 647.00
C 806.01 646.59 803.64 646.05 801.00 646.00
C 794.00 646.00 787.00 646.00 780.00 646.00
C 781.43 654.94 778.10 671.85 780.00 680.00 C 781.90 688.15 775.45 708.83 782.00 712.00 Z"/>
</g>
<g fill="#FBFDFD" fill-opacity="1.00" stroke="None">
<path d="
M 782.00 712.00 
C 786.99 714.41 801.35 712.45 807.00 712.00
C 843.54 709.10 841.62 653.96 808.00 647.00
C 799.00 647.00 790.00 647.00 781.00 647.00
C 782.86 655.55 778.52 672.27 781.00 680.00 C 783.48 687.73 775.76 707.59 782.00 712.00 Z"/>
</g>
<g fill="#F2F5F6" fill-opacity="1.00" stroke="None">
<path d="
M 210.00 683.00 
C 214.06 689.63 239.43 680.11 246.00 684.00
C 246.72 682.79 232.29 651.36 228.03 652.03 C 223.76 652.70 209.75 677.52 210.00 683.00 Z"/>
</g>
<g fill="#F3F6F8" fill-opacity="1.00" stroke="None">
<path d="
M 416.00 684.00 
C 410.88 679.22 406.48 652.12 398.03 652.03 C 389.58 651.94 386.35 679.64 380.00 684.00
C 392.00 684.00 404.00 684.00 416.00 684.00 Z"/>
</g>
<g fill="#D6F0FB" fill-opacity="1.00" stroke="None">
<path d="
M 570.00 719.00 
C 577.63 702.36 569.70 676.11 574.00 657.00
C 574.02 660.38 578.16 661.76 580.00 664.00
C 578.38 661.32 576.37 657.07 574.00 655.00
C 570.61 653.66 573.27 681.07 572.00 686.00 C 570.73 690.93 575.77 716.64 570.00 719.00 Z"/>
</g>
<g fill="#6D7E8C" fill-opacity="1.00" stroke="None">
<path d="
M 246.00 684.00 
C 239.43 680.11 214.06 689.63 210.00 683.00
C 210.05 684.16 243.15 688.79 246.00 684.00 Z"/>
</g>
<g fill="#748491" fill-opacity="1.00" stroke="None">
<path d="
M 432.00 718.00 
C 436.89 715.58 434.57 688.54 433.00 684.00
C 433.91 688.47 435.48 715.54 432.00 718.00 Z"/>
</g>
<g fill="#8B98A3" fill-opacity="1.00" stroke="None">
<path d="
M 364.00 718.00 
C 360.60 715.59 362.11 689.38 363.00 685.00
C 361.49 689.37 359.13 715.59 364.00 718.00 Z"/>
</g>
<g fill="#8CB7D2" fill-opacity="1.00" stroke="None">
<path d="
M 742.00 702.00 
C 738.05 697.33 735.03 691.62 731.00 687.00
C 731.00 687.00 730.11 687.21 730.00 687.00
C 733.29 692.31 737.41 697.80 742.00 702.00 Z"/>
</g>
<g fill="#99A9B8" fill-opacity="1.00" stroke="None">
<path d="
M 527.00 716.00 
C 524.40 719.68 507.70 719.53 505.00 716.00
C 507.73 720.85 524.35 721.13 527.00 716.00 Z"/>
</g>
<g fill="#8595A4" fill-opacity="1.00" stroke="None">
<path d="
M 478.00 718.00 
C 475.12 718.92 464.80 719.09 462.00 718.00
C 465.41 719.98 474.49 719.74 478.00 718.00 Z"/>
</g>
</svg>